<?xml version="1.0" encoding="utf-8"?>
<!-- Generator: Adobe Illustrator 24.3.0, SVG Export Plug-In . SVG Version: 6.00 Build 0)  -->
<svg version="1.1" id="Layer_1" xmlns="http://www.w3.org/2000/svg" xmlns:xlink="http://www.w3.org/1999/xlink" x="0px" y="0px"
	 viewBox="0 0 292 79.6" style="enable-background:new 0 0 292 79.6;" xml:space="preserve">
<style type="text/css">
	.st0{fill-rule:evenodd;clip-rule:evenodd;}
	.st1{fill:#DC2626;}
</style>
<g>
	<path class="st0" d="M45.1,17.6c-0.6,0.3-1.3,1.1-2.1,2.2c-7.1,10-12,16.9-15.4,21.7c-1.1,0.5-2.7,0.4-4.2-2.3L20,34.1
		C25.7,26.6,30,20.9,32.9,17c3.8-5.1,7.2-9.5,10.1-13.2c1.1-1.5,2.1-2.4,2.7-2.7c0.7-0.3,1.4-0.4,2.1-0.4c0.7,0,1.4,0.2,2,0.5
		c0.6,0.4,1.1,0.9,1.4,1.4l2.2,3.2"/>
	<path class="st0" d="M60.6,16.5l4.3,6.3c0.7,1.1,1.4,1.9,2.1,2.6c0.8,0.6,1.7,0.8,3,0.6c1.2-0.2,2.2-1,3.1-2.3L86.5,3.2
		c0.5-0.8,1.1-1.5,1.8-1.9c0.7-0.5,1.7-0.7,2.9-0.6c1.2,0.1,2.1,0.6,2.7,1.4l14.5,22.1l2.5,17.6L93.4,18.6c-0.2-0.3-0.6-0.7-1-1
		c-0.5-0.3-1-0.5-1.6-0.6c-0.6-0.1-1.1,0-1.7,0.1c-0.6,0.1-1.1,0.3-1.5,0.7c-0.4,0.4-0.8,0.8-1.2,1.3c-8.7,13.2-13.3,20.1-13.8,20.8
		c-0.4,0.7-0.8,1.2-1.2,1.6c-0.3,0.4-0.9,0.7-1.6,0.8c-0.7,0.2-1.5,0.2-2.3,0c-0.8-0.2-1.3-0.5-1.7-0.8c-0.4-0.4-0.7-0.8-1-1.1
		c-0.2-0.3-3.7-5.4-10.2-15.3"/>
	<path class="st1" d="M21.4,38.4c1.6,2.5,2.7,3.8,3.1,4c0.5,0.2,1,0.4,1.5,0.5c0.5,0.1,1.1,0,1.6-0.2c0.5-0.2,1-0.5,1.4-0.9
		c0.4-0.4,0.8-0.8,1.1-1.3c0.4-0.5,0.7-1,1.1-1.5c0.4-0.5,2.1-2.9,5.1-7.2c3-4.3,10.6-15,22.5-31.8c0.2,0,0.3,0,0.6,0h11.1
		L31.6,56.8c-0.7,1.1-1.4,1.9-2.4,2.2c-0.9,0.4-1.7,0.5-2.2,0.5c-0.6-0.1-1.1-0.2-1.6-0.3c-0.5-0.2-1.1-0.6-1.6-1.3
		c-0.6-0.7-3.1-4.5-7.6-11.3c-4.5-6.8-6.8-10.3-6.9-10.4c-0.1-0.1-0.3-0.3-0.5-0.7c-0.2-0.4-0.5-0.7-0.9-0.9
		c-0.4-0.2-0.8-0.4-1.2-0.5c-0.4-0.1-0.9-0.1-1.3,0c-0.5,0.1-0.9,0.2-1.3,0.3c-0.4,0.2-0.8,0.5-1.1,0.8c-0.3,0.4-0.6,0.9-0.9,1.4
		L0,39.8l0.1-18.4c0.4-1,1-1.9,1.7-2.7c0.7-0.8,1.5-1.3,2.2-1.4c0.8-0.2,1.5-0.2,2.3,0c0.8,0.2,1.4,0.5,1.9,1.1
		c0.5,0.6,1.5,2,2.9,4.2C12.6,24.8,16,30,21.4,38.4"/>
	<g>
		<path d="M155.4,1.1l-8.8,58.3h-26.3l-10-58.3h18.3c2.1,16.1,3.6,29.7,4.5,40.8c0.9-11.2,1.8-21.2,2.8-29.9l1.2-10.8H155.4z"/>
	</g>
	<g>
		<path d="M175.6,1.1v58.3h-17.3V1.1H175.6z"/>
	</g>
	<g>
		<path d="M182.6,1.1h13c8.4,0,14,0.3,17,1c2.9,0.7,5.2,1.8,6.7,3.3c1.5,1.5,2.5,3.2,2.9,5.1c0.4,1.9,0.6,5.6,0.6,11.1v20.4
			c0,5.2-0.3,8.7-0.8,10.5c-0.6,1.8-1.5,3.1-2.9,4.1c-1.4,1-3.1,1.7-5.2,2.1c-2.1,0.4-5.2,0.6-9.3,0.6h-21.8V1.1z M199.9,11.1v38.4
			c2.5,0,4-0.4,4.6-1.3c0.6-0.9,0.9-3.3,0.9-7.2V18.3c0-2.6-0.1-4.3-0.3-5.1c-0.2-0.7-0.6-1.3-1.3-1.6
			C203,11.3,201.8,11.1,199.9,11.1z"/>
	</g>
	<g>
		<path d="M246.4,1.1v58.3h-17.3V1.1H246.4z"/>
	</g>
	<g>
		<path d="M253.4,1.1h12.3c8.2,0,13.7,0.3,16.6,0.8s5.2,2,7.1,4.2c1.8,2.3,2.7,5.9,2.7,10.9c0,4.5-0.6,7.6-1.9,9.2
			c-1.3,1.6-3.8,2.5-7.6,2.8c3.4,0.7,5.7,1.7,6.9,3c1.2,1.2,1.9,2.4,2.2,3.4c0.3,1,0.4,3.9,0.4,8.6v15.4h-16.1V40.1
			c0-3.1-0.3-5.1-0.8-5.8s-2-1.1-4.4-1.1v26.3h-17.3V1.1z M270.7,11.1v13c1.9,0,3.3-0.2,4.1-0.7c0.8-0.5,1.2-2,1.2-4.6v-3.2
			c0-1.9-0.4-3.1-1.1-3.6C274,11.4,272.7,11.1,270.7,11.1z"/>
	</g>
	<g>
		<path d="M13.8,75.5L8.7,65.3h2.4l2.9,6.1c0.3,0.7,0.6,1.3,0.9,2c0.2-0.5,0.5-1.2,0.8-1.9l3-6.2H21L16,75.5H13.8z"/>
	</g>
	<g>
		<path d="M32.2,72.2l2.3,0.2c-0.4,1-1.1,1.8-2.1,2.4c-1,0.6-2.3,0.9-3.8,0.9c-2,0-3.5-0.5-4.7-1.4c-1.1-0.9-1.7-2.2-1.7-3.9
			c0-1.7,0.6-3,1.7-4c1.2-0.9,2.7-1.4,4.5-1.4c1.8,0,3.3,0.5,4.4,1.4c1.1,0.9,1.7,2.2,1.7,3.9c0,0.1,0,0.3,0,0.5h-10
			c0.1,1.1,0.5,2,1.2,2.6c0.7,0.6,1.7,0.9,2.8,0.9c0.8,0,1.5-0.2,2.1-0.5C31.4,73.4,31.9,72.9,32.2,72.2z M24.8,69.4h7.5
			c-0.1-0.9-0.4-1.5-0.9-1.9c-0.7-0.7-1.7-1-2.8-1c-1,0-1.9,0.3-2.6,0.8C25.2,67.8,24.8,68.5,24.8,69.4z"/>
	</g>
	<g>
		<path d="M37.4,75.5V65.3h2v1.5c0.5-0.7,1-1.2,1.4-1.4c0.4-0.2,0.9-0.3,1.5-0.3c0.8,0,1.5,0.2,2.3,0.6l-0.8,1.6
			c-0.6-0.2-1.1-0.4-1.7-0.4c-0.5,0-0.9,0.1-1.3,0.3c-0.4,0.2-0.7,0.5-0.8,0.9c-0.3,0.6-0.4,1.3-0.4,2v5.3H37.4z"/>
	</g>
	<g>
		<path d="M51,73.9l0.3,1.5c-0.6,0.1-1.2,0.2-1.7,0.2c-0.8,0-1.5-0.1-1.9-0.3c-0.5-0.2-0.8-0.5-1-0.8c-0.2-0.3-0.3-1-0.3-2v-5.8
			h-1.7v-1.3h1.7v-2.5l2.3-1v3.5H51v1.3h-2.3v5.9c0,0.5,0,0.8,0.1,0.9c0.1,0.1,0.2,0.3,0.4,0.3c0.2,0.1,0.4,0.1,0.8,0.1
			C50.2,74,50.6,74,51,73.9z"/>
	</g>
	<g>
		<path d="M53.2,63.4v-2h2.3v2H53.2z M53.2,75.5V65.3h2.3v10.2H53.2z"/>
	</g>
	<g>
		<path d="M67.7,71.7l2.2,0.2C69.7,73.1,69,74,68,74.7c-1,0.7-2.2,1-3.7,1c-1.8,0-3.3-0.5-4.4-1.4c-1.1-0.9-1.7-2.2-1.7-3.9
			c0-1.1,0.2-2.1,0.7-2.9c0.5-0.8,1.2-1.4,2.2-1.9c1-0.4,2-0.6,3.2-0.6c1.5,0,2.6,0.3,3.6,0.8c0.9,0.6,1.5,1.3,1.8,2.4l-2.2,0.3
			c-0.2-0.7-0.6-1.2-1.1-1.5c-0.5-0.3-1.2-0.5-1.9-0.5c-1.1,0-2.1,0.3-2.8,0.9c-0.7,0.6-1.1,1.6-1.1,2.9c0,1.4,0.3,2.4,1,3
			c0.7,0.6,1.6,0.9,2.7,0.9c0.9,0,1.6-0.2,2.2-0.6C67.1,73.2,67.5,72.6,67.7,71.7z"/>
	</g>
	<g>
		<path d="M80.6,74.2c-0.8,0.5-1.7,0.9-2.4,1.1c-0.8,0.2-1.6,0.3-2.5,0.3c-1.5,0-2.6-0.3-3.4-0.8c-0.8-0.5-1.2-1.2-1.2-2.1
			c0-0.5,0.1-1,0.4-1.4c0.3-0.4,0.7-0.7,1.2-1c0.5-0.2,1-0.4,1.6-0.6c0.4-0.1,1.1-0.2,2-0.3c1.8-0.2,3.2-0.4,4.1-0.6
			c0-0.2,0-0.4,0-0.4c0-0.7-0.2-1.2-0.6-1.5c-0.6-0.4-1.4-0.6-2.6-0.6c-1.1,0-1.9,0.1-2.4,0.4c-0.5,0.3-0.9,0.8-1.1,1.5l-2.2-0.2
			c0.2-0.7,0.5-1.3,1-1.7c0.5-0.4,1.1-0.8,2-1c0.9-0.2,1.9-0.4,3-0.4c1.1,0,2.1,0.1,2.8,0.3c0.7,0.2,1.2,0.5,1.6,0.8
			c0.3,0.3,0.6,0.7,0.7,1.2c0.1,0.3,0.1,0.8,0.1,1.6v2.3c0,1.6,0,2.6,0.1,3c0.1,0.4,0.3,0.8,0.6,1.2h-2.4
			C80.8,75.1,80.7,74.7,80.6,74.2z M80.4,70.4c-0.8,0.3-2.1,0.5-3.7,0.6c-0.9,0.1-1.6,0.2-2,0.3c-0.4,0.1-0.7,0.3-0.9,0.6
			c-0.2,0.2-0.3,0.5-0.3,0.8c0,0.5,0.2,0.8,0.7,1.1c0.5,0.3,1.1,0.5,2,0.5c0.9,0,1.7-0.1,2.3-0.4c0.7-0.3,1.2-0.7,1.5-1.2
			c0.2-0.4,0.4-1,0.4-1.7V70.4z"/>
	</g>
	<g>
		<path d="M86.2,75.5v-14h2.3v14H86.2z"/>
	</g>
	<g>
		<path d="M98.2,72.4l2.2-0.3c0.1,0.7,0.5,1.2,1.1,1.6c0.6,0.4,1.4,0.5,2.4,0.5c1,0,1.8-0.2,2.3-0.5c0.5-0.3,0.8-0.7,0.8-1.1
			c0-0.4-0.2-0.7-0.7-0.9c-0.3-0.2-1.1-0.3-2.3-0.6c-1.7-0.3-2.8-0.6-3.5-0.8c-0.6-0.2-1.1-0.6-1.5-1c-0.3-0.4-0.5-0.9-0.5-1.4
			c0-0.5,0.1-0.9,0.4-1.3c0.3-0.4,0.6-0.7,1.1-1c0.4-0.2,0.8-0.4,1.4-0.5c0.6-0.1,1.3-0.2,2-0.2c1.1,0,2,0.1,2.8,0.3
			c0.8,0.2,1.4,0.5,1.8,0.9c0.4,0.4,0.6,0.9,0.8,1.6l-2.2,0.2c-0.1-0.5-0.4-0.9-0.9-1.2c-0.5-0.3-1.2-0.4-2.1-0.4
			c-1,0-1.8,0.1-2.2,0.4c-0.4,0.3-0.7,0.6-0.7,0.9c0,0.2,0.1,0.4,0.3,0.6c0.2,0.2,0.5,0.3,0.9,0.5c0.2,0.1,0.9,0.2,2,0.4
			c1.6,0.3,2.7,0.6,3.4,0.8c0.6,0.2,1.1,0.5,1.5,0.9c0.4,0.4,0.5,0.9,0.5,1.5c0,0.6-0.2,1.1-0.7,1.6c-0.4,0.5-1.1,0.9-1.9,1.2
			c-0.8,0.3-1.8,0.4-2.8,0.4c-1.7,0-3.1-0.3-4-0.8C99.1,74.3,98.5,73.5,98.2,72.4z"/>
	</g>
	<g>
		<path d="M117,73.9l0.3,1.5c-0.6,0.1-1.2,0.2-1.7,0.2c-0.8,0-1.5-0.1-1.9-0.3c-0.5-0.2-0.8-0.5-1-0.8c-0.2-0.3-0.3-1-0.3-2v-5.8
			h-1.7v-1.3h1.7v-2.5l2.3-1v3.5h2.3v1.3h-2.3v5.9c0,0.5,0,0.8,0.1,0.9c0.1,0.1,0.2,0.3,0.4,0.3c0.2,0.1,0.4,0.1,0.8,0.1
			C116.3,74,116.6,74,117,73.9z"/>
	</g>
	<g>
		<path d="M118.4,70.4c0-1.9,0.7-3.3,2.1-4.2c1.2-0.8,2.6-1.1,4.2-1.1c1.8,0,3.3,0.5,4.5,1.4c1.2,0.9,1.8,2.2,1.8,3.8
			c0,1.3-0.3,2.3-0.8,3.1c-0.5,0.8-1.3,1.3-2.3,1.7c-1,0.4-2.1,0.6-3.2,0.6c-1.9,0-3.4-0.5-4.5-1.4C119,73.4,118.4,72.1,118.4,70.4z
			 M120.7,70.4c0,1.3,0.4,2.3,1.1,2.9c0.7,0.6,1.7,1,2.8,1c1.1,0,2.1-0.3,2.8-1c0.7-0.7,1.1-1.6,1.1-3c0-1.3-0.4-2.2-1.1-2.9
			c-0.8-0.6-1.7-1-2.8-1c-1.1,0-2.1,0.3-2.8,1C121.1,68.1,120.7,69.1,120.7,70.4z"/>
	</g>
	<g>
		<path d="M133.6,75.5V65.3h2v1.5c0.5-0.7,1-1.2,1.4-1.4c0.4-0.2,0.9-0.3,1.5-0.3c0.8,0,1.5,0.2,2.3,0.6l-0.8,1.6
			c-0.6-0.2-1.1-0.4-1.7-0.4c-0.5,0-0.9,0.1-1.3,0.3c-0.4,0.2-0.7,0.5-0.8,0.9c-0.3,0.6-0.4,1.3-0.4,2v5.3H133.6z"/>
	</g>
	<g>
		<path d="M151,74.2c-0.8,0.5-1.7,0.9-2.4,1.1c-0.8,0.2-1.6,0.3-2.5,0.3c-1.5,0-2.6-0.3-3.4-0.8c-0.8-0.5-1.2-1.2-1.2-2.1
			c0-0.5,0.1-1,0.4-1.4c0.3-0.4,0.7-0.7,1.2-1c0.5-0.2,1-0.4,1.6-0.6c0.4-0.1,1.1-0.2,2-0.3c1.8-0.2,3.2-0.4,4-0.6
			c0-0.2,0-0.4,0-0.4c0-0.7-0.2-1.2-0.6-1.5c-0.6-0.4-1.4-0.6-2.6-0.6c-1.1,0-1.9,0.1-2.4,0.4c-0.5,0.3-0.9,0.8-1.1,1.5l-2.2-0.2
			c0.2-0.7,0.5-1.3,1-1.7c0.5-0.4,1.1-0.8,2-1c0.9-0.2,1.9-0.4,3-0.4c1.1,0,2.1,0.1,2.8,0.3c0.7,0.2,1.2,0.5,1.6,0.8
			c0.3,0.3,0.6,0.7,0.7,1.2c0.1,0.3,0.1,0.8,0.1,1.6v2.3c0,1.6,0,2.6,0.1,3c0.1,0.4,0.3,0.8,0.6,1.2h-2.4
			C151.2,75.1,151,74.7,151,74.2z M150.8,70.4c-0.8,0.3-2.1,0.5-3.7,0.6c-0.9,0.1-1.6,0.2-2,0.3c-0.4,0.1-0.7,0.3-0.9,0.6
			s-0.3,0.5-0.3,0.8c0,0.5,0.2,0.8,0.7,1.1c0.5,0.3,1.1,0.5,2,0.5c0.9,0,1.7-0.1,2.3-0.4c0.7-0.3,1.2-0.7,1.5-1.2
			c0.2-0.4,0.4-1,0.4-1.7V70.4z"/>
	</g>
	<g>
		<path d="M156.2,76.3l2.2,0.2c0.1,0.5,0.3,0.9,0.8,1.1c0.6,0.3,1.3,0.5,2.3,0.5c1.1,0,1.9-0.2,2.4-0.5c0.6-0.3,1-0.8,1.2-1.3
			c0.1-0.3,0.2-1.1,0.2-2.2c-1,0.9-2.2,1.3-3.7,1.3c-1.8,0-3.3-0.5-4.3-1.5c-1-1-1.5-2.2-1.5-3.6c0-1,0.2-1.9,0.7-2.7
			c0.5-0.8,1.1-1.5,2-1.9c0.9-0.4,1.9-0.7,3.1-0.7c1.6,0,2.9,0.5,3.9,1.5v-1.2h2.1v8.8c0,1.6-0.2,2.7-0.6,3.4
			c-0.4,0.7-1.1,1.2-2,1.6c-0.9,0.4-2.1,0.6-3.4,0.6c-1.6,0-2.9-0.3-3.9-0.8C156.6,78.2,156.1,77.4,156.2,76.3z M158.1,70.2
			c0,1.3,0.3,2.3,1,2.9c0.7,0.6,1.6,0.9,2.6,0.9c1,0,1.9-0.3,2.6-0.9c0.7-0.6,1.1-1.6,1.1-2.9c0-1.2-0.4-2.2-1.1-2.8
			c-0.7-0.6-1.6-0.9-2.6-0.9c-1,0-1.9,0.3-2.6,0.9C158.4,68,158.1,69,158.1,70.2z"/>
	</g>
	<g>
		<path d="M180.1,72.2l2.3,0.2c-0.4,1-1.1,1.8-2.1,2.4c-1,0.6-2.3,0.9-3.8,0.9c-2,0-3.5-0.5-4.7-1.4c-1.1-0.9-1.7-2.2-1.7-3.9
			c0-1.7,0.6-3,1.7-4c1.2-0.9,2.7-1.4,4.5-1.4c1.8,0,3.3,0.5,4.4,1.4c1.1,0.9,1.7,2.2,1.7,3.9c0,0.1,0,0.3,0,0.5h-10
			c0.1,1.1,0.5,2,1.2,2.6c0.7,0.6,1.7,0.9,2.8,0.9c0.8,0,1.5-0.2,2.1-0.5C179.3,73.4,179.8,72.9,180.1,72.2z M172.7,69.4h7.5
			c-0.1-0.9-0.4-1.5-0.9-1.9c-0.7-0.7-1.7-1-2.8-1c-1,0-1.9,0.3-2.6,0.8C173.1,67.8,172.8,68.5,172.7,69.4z"/>
	</g>
	<g>
		<path d="M191.6,72.4l2.2-0.3c0.1,0.7,0.5,1.2,1.1,1.6c0.6,0.4,1.4,0.5,2.4,0.5c1,0,1.8-0.2,2.3-0.5c0.5-0.3,0.8-0.7,0.8-1.1
			c0-0.4-0.2-0.7-0.7-0.9c-0.3-0.2-1.1-0.3-2.3-0.6c-1.7-0.3-2.8-0.6-3.5-0.8c-0.6-0.2-1.1-0.6-1.5-1c-0.3-0.4-0.5-0.9-0.5-1.4
			c0-0.5,0.1-0.9,0.4-1.3c0.3-0.4,0.6-0.7,1.1-1c0.4-0.2,0.8-0.4,1.4-0.5c0.6-0.1,1.3-0.2,2-0.2c1.1,0,2,0.1,2.8,0.3
			s1.4,0.5,1.8,0.9c0.4,0.4,0.6,0.9,0.8,1.6l-2.2,0.2c-0.1-0.5-0.4-0.9-0.9-1.2c-0.5-0.3-1.2-0.4-2.1-0.4c-1,0-1.8,0.1-2.2,0.4
			c-0.4,0.3-0.7,0.6-0.7,0.9c0,0.2,0.1,0.4,0.3,0.6c0.2,0.2,0.5,0.3,0.9,0.5c0.2,0.1,0.9,0.2,2,0.4c1.6,0.3,2.7,0.6,3.4,0.8
			c0.6,0.2,1.1,0.5,1.5,0.9c0.4,0.4,0.5,0.9,0.5,1.5c0,0.6-0.2,1.1-0.7,1.6c-0.4,0.5-1.1,0.9-1.9,1.2c-0.8,0.3-1.8,0.4-2.8,0.4
			c-1.7,0-3.1-0.3-4-0.8C192.5,74.3,191.9,73.5,191.6,72.4z"/>
	</g>
	<g>
		<path d="M204.6,70.4c0-1.9,0.7-3.3,2.1-4.2c1.2-0.8,2.6-1.1,4.2-1.1c1.8,0,3.3,0.5,4.5,1.4c1.2,0.9,1.8,2.2,1.8,3.8
			c0,1.3-0.3,2.3-0.8,3.1c-0.5,0.8-1.3,1.3-2.3,1.7c-1,0.4-2.1,0.6-3.2,0.6c-1.9,0-3.4-0.5-4.5-1.4
			C205.2,73.4,204.6,72.1,204.6,70.4z M206.9,70.4c0,1.3,0.4,2.3,1.1,2.9c0.7,0.6,1.7,1,2.8,1c1.1,0,2.1-0.3,2.8-1
			c0.7-0.7,1.1-1.6,1.1-3c0-1.3-0.4-2.2-1.1-2.9c-0.8-0.6-1.7-1-2.8-1c-1.1,0-2.1,0.3-2.8,1C207.3,68.1,206.9,69.1,206.9,70.4z"/>
	</g>
	<g>
		<path d="M219.8,75.5v-14h2.3v14H219.8z"/>
	</g>
	<g>
		<path d="M234.3,75.5V74c-1,1.1-2.5,1.7-4.3,1.7c-0.8,0-1.5-0.1-2.2-0.3c-0.7-0.2-1.2-0.5-1.5-0.9c-0.3-0.3-0.6-0.8-0.7-1.3
			c-0.1-0.3-0.1-0.9-0.1-1.6v-6.3h2.3v5.6c0,0.9,0,1.5,0.1,1.8c0.1,0.5,0.4,0.8,0.9,1.1c0.5,0.3,1,0.4,1.7,0.4s1.3-0.1,1.9-0.4
			c0.6-0.3,1-0.6,1.3-1.1c0.2-0.5,0.4-1.1,0.4-2v-5.4h2.3v10.2H234.3z"/>
	</g>
	<g>
		<path d="M244.9,73.9l0.3,1.5c-0.6,0.1-1.2,0.2-1.7,0.2c-0.8,0-1.5-0.1-1.9-0.3c-0.5-0.2-0.8-0.5-1-0.8c-0.2-0.3-0.3-1-0.3-2v-5.8
			h-1.7v-1.3h1.7v-2.5l2.3-1v3.5h2.3v1.3h-2.3v5.9c0,0.5,0,0.8,0.1,0.9c0.1,0.1,0.2,0.3,0.4,0.3c0.2,0.1,0.4,0.1,0.8,0.1
			C244.1,74,244.5,74,244.9,73.9z"/>
	</g>
	<g>
		<path d="M247.1,63.4v-2h2.3v2H247.1z M247.1,75.5V65.3h2.3v10.2H247.1z"/>
	</g>
	<g>
		<path d="M252,70.4c0-1.9,0.7-3.3,2.1-4.2c1.2-0.8,2.6-1.1,4.2-1.1c1.8,0,3.3,0.5,4.5,1.4c1.2,0.9,1.8,2.2,1.8,3.8
			c0,1.3-0.3,2.3-0.8,3.1c-0.5,0.8-1.3,1.3-2.3,1.7c-1,0.4-2.1,0.6-3.2,0.6c-1.9,0-3.4-0.5-4.5-1.4C252.6,73.4,252,72.1,252,70.4z
			 M254.3,70.4c0,1.3,0.4,2.3,1.1,2.9c0.7,0.6,1.7,1,2.8,1c1.1,0,2.1-0.3,2.8-1c0.7-0.7,1.1-1.6,1.1-3c0-1.3-0.4-2.2-1.1-2.9
			c-0.8-0.6-1.7-1-2.8-1c-1.1,0-2.1,0.3-2.8,1C254.7,68.1,254.3,69.1,254.3,70.4z"/>
	</g>
	<g>
		<path d="M267.2,75.5V65.3h2v1.4c1-1.1,2.4-1.7,4.3-1.7c0.8,0,1.5,0.1,2.2,0.3c0.7,0.2,1.2,0.5,1.5,0.9c0.3,0.4,0.6,0.8,0.7,1.3
			c0.1,0.3,0.1,0.9,0.1,1.7v6.2h-2.3v-6.2c0-0.7-0.1-1.2-0.3-1.6c-0.2-0.3-0.5-0.6-0.9-0.8c-0.4-0.2-1-0.3-1.6-0.3
			c-1,0-1.8,0.2-2.5,0.7c-0.7,0.5-1.1,1.3-1.1,2.6v5.5H267.2z"/>
	</g>
	<g>
		<path d="M280.7,72.4l2.2-0.3c0.1,0.7,0.5,1.2,1.1,1.6c0.6,0.4,1.4,0.5,2.4,0.5c1,0,1.8-0.2,2.3-0.5c0.5-0.3,0.8-0.7,0.8-1.1
			c0-0.4-0.2-0.7-0.7-0.9c-0.3-0.2-1.1-0.3-2.3-0.6c-1.7-0.3-2.8-0.6-3.5-0.8c-0.6-0.2-1.1-0.6-1.5-1c-0.3-0.4-0.5-0.9-0.5-1.4
			c0-0.5,0.1-0.9,0.4-1.3c0.3-0.4,0.6-0.7,1.1-1c0.4-0.2,0.8-0.4,1.4-0.5c0.6-0.1,1.3-0.2,2-0.2c1.1,0,2,0.1,2.8,0.3
			s1.4,0.5,1.8,0.9c0.4,0.4,0.6,0.9,0.8,1.6l-2.2,0.2c-0.1-0.5-0.4-0.9-0.9-1.2c-0.5-0.3-1.2-0.4-2.1-0.4c-1,0-1.8,0.1-2.2,0.4
			c-0.4,0.3-0.7,0.6-0.7,0.9c0,0.2,0.1,0.4,0.3,0.6c0.2,0.2,0.5,0.3,0.9,0.5c0.2,0.1,0.9,0.2,2,0.4c1.6,0.3,2.7,0.6,3.4,0.8
			c0.6,0.2,1.1,0.5,1.5,0.9c0.4,0.4,0.5,0.9,0.5,1.5c0,0.6-0.2,1.1-0.7,1.6c-0.4,0.5-1.1,0.9-1.9,1.2c-0.8,0.3-1.8,0.4-2.8,0.4
			c-1.7,0-3.1-0.3-4-0.8C281.5,74.3,280.9,73.5,280.7,72.4z"/>
	</g>
</g>
</svg>
