<svg width="1017" height="448" viewBox="0 0 1017 448" fill="none" xmlns="http://www.w3.org/2000/svg">
<g filter="url(#filter0_d_0_1)">
<mask id="path-1-inside-1_0_1" fill="white">
<path d="M1012.16 88.4104L1009.94 90.4323C1008.57 91.7802 1006.88 92.9035 1005.09 94.1391C999.078 98.183 991.274 101.104 983.047 104.361C974.294 107.956 965.329 111.213 957.841 116.268C944.869 124.693 939.384 135.701 940.544 150.978C940.755 155.695 939.173 160.526 936.115 164.232C932.002 168.95 927.994 173.78 925.041 178.498C924.092 175.241 923.037 172.095 922.404 168.276C922.193 166.254 922.088 164.569 922.193 162.435C922.615 157.38 925.146 153.112 929.049 149.967C936.22 144.238 938.962 136.262 941.599 127.838C941.81 126.602 942.021 125.03 942.443 123.794C943.287 99.194 921.982 68.6405 906.162 55.6103L903.737 53.5884L903.842 56.7336C903.842 58.7555 904.053 60.7775 903.842 63.1364C903.209 70.6624 900.783 79.1994 898.252 87.961C895.616 97.6213 892.663 107.282 892.03 116.605C890.553 132.78 895.616 144.238 907.744 152.213C911.541 154.909 914.283 159.402 915.021 164.12C915.971 169.175 916.92 174.23 918.185 178.611C899.096 171.084 881.061 160.975 864.292 148.506C871.675 130.871 879.374 110.315 871.675 92.5665C864.714 76.1665 847.312 68.4158 831.281 62.3501C776.544 42.1308 720.224 26.6294 663.167 16.2952C605.899 5.73626 547.575 0.23214 489.463 0.00748246C431.351 -0.217175 373.344 4.61296 316.076 15.0596C258.913 25.5061 202.594 41.2322 148.384 62.687C139.103 66.2816 129.927 70.1007 120.752 74.0323C113.896 76.9528 104.932 78.5254 103.033 87.0624C98.4982 107.057 101.873 130.084 109.889 148.506C79.0923 172.657 41.968 187.597 4 190.967C20.5583 213.657 40.4915 233.427 62.6395 249.715C56.1006 283.076 49.5616 316.55 43.0227 349.912C42.6008 352.159 42.1789 354.405 42.8117 356.54C44.1828 361.145 49.7726 362.605 54.4131 362.83C67.8074 363.504 80.5688 360.808 92.9084 356.427C79.4087 378.781 75.9283 414.951 79.1978 436.293L79.936 440C80.5688 437.192 81.9399 434.721 83.7328 432.699C84.1547 432.025 84.893 431.575 85.6312 431.014C92.0647 425.173 100.397 420.005 109.256 414.389C118.748 408.548 128.662 402.594 136.15 395.181C149.65 382.712 153.763 368.559 149.755 351.372C148.595 346.879 148.911 342.723 150.599 338.455C154.712 331.94 158.825 325.312 162.833 318.797C166.313 316.775 169.688 314.978 173.169 313.181C198.375 300.15 225.691 291.726 253.534 288.356C257.858 287.907 262.71 287.233 265.663 283.75C269.143 279.594 268.3 272.967 266.823 267.463C263.237 254.208 256.909 241.852 248.683 231.18C405.406 192.539 570.251 192.427 726.974 230.956C718.642 241.852 712.314 254.433 708.307 267.912C707.041 272.293 705.986 277.348 708.201 281.279C710.732 285.772 716.322 287.008 721.068 287.682C758.614 293.972 795.211 307.227 828.433 326.885C858.702 344.745 890.553 368.671 924.513 361.145C927.677 360.471 931.158 359.011 932.423 355.866C933.162 353.731 932.74 351.485 932.318 349.463C925.779 316.213 919.346 282.739 912.807 249.49C924.197 240.841 934.955 231.18 945.079 221.071C954.255 211.972 963.009 202.312 971.13 192.202C957.525 190.293 944.025 187.148 930.947 182.767C932.845 179.397 935.271 175.915 938.013 172.32C939.173 171.084 940.544 169.737 942.126 168.726C946.029 166.367 951.091 165.805 955.626 167.265C964.063 169.961 971.763 167.602 979.673 164.682C980.938 164.008 982.204 163.334 983.258 162.772C1002.56 148.843 1012.79 112.449 1013 90.9939L1012.16 88.4104ZM909.959 147.832C899.623 140.98 895.405 131.208 896.565 117.279C897.303 108.517 900.045 99.0816 902.576 89.8706C904.897 81.446 907.111 73.6953 908.061 66.5062C908.483 67.6295 908.483 69.0898 908.904 70.4378C912.596 94.7008 914.283 119.413 913.967 143.901C913.861 146.484 913.967 149.068 914.178 151.539C912.912 150.079 911.541 148.843 909.959 147.832ZM914.389 88.1857C913.65 82.12 912.912 75.9419 911.963 69.8761C914.916 73.1336 917.553 76.8405 920.189 80.6597C918.818 83.5802 916.709 86.3885 914.389 88.1857ZM914.916 92.3419C917.131 90.8816 919.346 88.5227 921.033 85.9391C921.455 85.1528 921.877 84.4789 922.299 83.8049C924.092 86.5008 925.568 89.0843 926.834 92.1172C924.83 96.2734 921.139 100.767 915.76 104.361C915.549 100.43 915.338 96.1611 914.916 92.3419ZM927.888 97.0597C928.205 96.6104 928.31 96.0487 928.732 95.5994C930.103 98.4077 931.369 101.328 932.423 104.361C928.099 112.786 923.037 117.953 916.709 120.312C916.498 116.268 916.393 112.112 915.971 108.18C921.139 104.923 925.252 101.104 927.888 97.0597ZM916.709 123.794C922.615 121.884 927.888 117.616 932.318 111.101C933.056 110.315 933.373 109.641 933.9 108.63C934.849 111.55 935.482 114.695 935.482 117.728C931.58 125.479 924.724 131.994 916.92 135.589C916.92 131.657 916.814 127.613 916.709 123.794ZM916.92 143.676C916.92 142.104 917.025 140.756 916.92 139.071C924.197 136.15 931.052 130.421 935.904 123.569C935.693 124.243 935.798 124.805 935.798 125.254C935.06 133.567 931.369 140.419 925.041 145.586C921.877 147.945 919.557 151.202 918.185 154.909C917.236 151.989 916.92 147.832 916.92 143.676ZM92.6975 371.704C102.717 368.334 111.26 368.334 118.115 371.816C115.162 375.299 112.209 379.005 109.361 382.6C102.4 381.027 96.0724 380.915 90.6936 381.926C90.0608 382.038 89.428 382.151 88.9007 382.263C89.9554 378.781 91.1155 375.074 92.6975 371.704ZM143.005 340.926C141.529 344.52 138.576 348.227 135.412 351.485C134.251 352.72 133.091 354.068 131.931 355.304C123.388 351.372 113.264 350.361 104.193 352.159C104.615 351.485 105.143 350.923 105.459 350.923L105.564 350.811C110.838 348.452 115.9 345.756 120.963 342.948C123.916 342.498 126.869 342.498 130.033 342.835C134.568 343.285 138.892 342.723 143.005 340.926ZM132.986 336.096C137.31 333.512 141.74 330.929 145.958 328.345C144.904 330.03 143.849 331.715 142.794 333.4C139.947 335.422 136.572 336.32 132.986 336.096ZM129.084 358.562C126.13 361.931 123.283 365.526 120.33 368.783C113.896 365.414 106.303 364.29 97.549 366.312C96.7052 366.312 95.4396 366.537 94.385 366.762C95.756 363.279 97.7599 360.246 99.4474 357.663C108.939 354.293 119.908 354.63 129.084 358.562ZM87.7406 386.981C92.6975 384.959 99.131 384.734 106.514 386.082C103.772 389.789 101.135 393.608 98.3927 397.315C95.2287 396.304 91.6428 396.529 88.2679 397.203C87.3187 397.54 86.6859 397.652 85.7367 398.101C86.1586 394.394 86.8968 390.688 87.7406 386.981ZM84.893 402.594C88.3734 401.247 92.2756 400.573 95.6506 401.134C91.5374 406.975 87.6351 413.041 83.8383 418.77C83.9438 413.49 84.3656 407.986 84.893 402.594ZM133.197 391.586C125.92 398.551 116.428 404.055 107.252 409.783C99.131 414.726 91.221 419.444 84.9984 424.836C85.6312 423.712 86.264 422.252 87.3187 420.792C102.4 397.09 119.592 374.4 138.576 353.844C140.685 351.485 142.689 349.238 144.271 346.879C144.165 349.126 144.376 351.485 145.114 353.844C148.489 368.671 144.693 380.69 133.197 391.586ZM219.785 279.257C191.731 285.323 166.208 301.948 141.529 317.674C114.846 334.635 86.475 351.485 55.4678 353.507C73.3971 325.2 64.5379 285.997 78.4595 255.219C80.2524 251.624 82.0454 247.693 81.0962 243.874C80.0415 239.942 76.0338 237.696 72.5534 235.786C64.5379 231.63 56.9443 226.463 49.878 221.071C44.4992 217.027 33.0033 209.726 30.7885 203.211C46.925 200.29 61.6903 198.493 76.772 190.742C83.8383 187.148 90.5882 182.654 96.9162 177.6C100.08 175.016 103.033 172.32 105.986 169.512C107.568 167.827 114.107 162.884 114.213 160.413C113.896 164.906 114.213 169.063 114.846 173.443C105.037 178.835 97.338 187.148 88.3734 193.775C87.9515 194.112 88.2679 194.898 88.7952 194.674C98.0763 190.517 106.83 184.564 116.428 181.419C117.904 187.372 120.013 193.326 122.123 199.054C106.725 203.211 92.2756 211.074 77.6158 218.263C76.983 218.487 77.4048 219.386 77.9322 219.161C93.2248 213.994 108.728 208.153 124.759 206.468C126.341 210.961 128.029 215.454 129.4 220.06C116.322 224.778 103.877 231.405 91.6428 238.257C91.221 238.482 91.4319 239.38 91.9592 239.156C104.932 234.663 118.01 230.507 131.404 228.148C131.826 230.619 132.353 233.202 132.564 235.786C132.775 237.808 132.88 239.83 132.986 241.964L103.666 261.846C103.244 262.183 103.561 262.97 104.088 262.745L133.724 250.613C134.357 254.77 135.306 258.926 137.626 262.408C145.431 262.52 153.235 262.857 160.934 263.644L123.81 285.098C123.388 285.323 123.705 286.222 124.127 285.997L173.696 265.329C182.239 266.564 190.887 268.249 199.219 270.383C179.918 281.167 160.091 291.613 139.314 298.803C138.681 299.027 138.997 299.926 139.525 299.813C164.098 293.972 187.723 283.75 210.926 273.641C215.777 275.101 220.734 276.786 225.586 278.471C223.898 278.359 222 278.808 219.785 279.257ZM249.21 264.205C249.632 266.115 250.265 267.912 250.792 269.822C239.507 262.633 226.851 258.476 213.984 256.118C207.34 254.994 200.59 254.096 193.84 253.759C187.723 253.422 180.129 254.433 174.434 252.972C179.918 250.95 238.031 232.191 238.874 234.101C242.777 243.874 246.257 253.871 249.21 264.205ZM487.038 180.632C360.583 180.632 247.944 200.964 152.075 240.841L150.177 241.627L149.86 239.493C141.74 193.438 127.712 139.408 111.154 91.1063L110.521 89.1967L129.505 83.9172C249.527 51.4542 362.798 20.5637 487.038 20.5637C487.143 20.5637 487.248 20.5637 487.354 20.5637C611.277 20.5637 724.76 51.4541 844.675 84.1419L863.87 89.4213L863.237 91.3309C856.698 110.539 851.636 131.432 846.89 151.652C845.624 157.268 844.253 162.66 842.988 168.052C840.878 176.139 838.558 184.452 835.921 193.326C831.175 208.939 826.429 224.89 824.637 239.717L824.426 241.964L822.422 241.178C724.865 201.076 612.016 180.632 487.038 180.632ZM744.271 261.06C737.205 263.082 730.138 265.216 723.916 269.597C726.025 260.835 728.662 252.411 731.615 243.986C732.67 241.065 734.041 234.663 736.888 233.876C739.525 232.978 747.329 237.022 750.177 237.696C758.72 240.279 767.368 242.75 775.805 245.222C780.235 246.457 784.77 247.805 789.2 249.041C792.786 250.052 797.953 252.748 801.645 252.635C782.977 252.972 764.204 255.781 746.064 260.274C745.431 260.835 744.798 260.948 744.271 261.06ZM944.763 202.649C931.263 215.342 916.498 226.575 900.994 236.011C897.725 238.033 894.245 240.167 893.295 244.098C892.979 246.457 893.506 248.704 894.35 250.726C894.772 251.961 895.51 253.309 896.143 254.545C910.592 285.098 900.889 324.975 918.924 353.282C888.022 350.811 859.757 334.074 833.074 317.112C806.391 300.15 780.235 284.312 749.439 277.797C752.497 275.663 756.716 274.315 761.04 273.192C784.348 283.301 807.867 293.635 832.441 299.364C833.074 299.476 833.285 298.578 832.652 298.353C811.875 291.164 792.153 280.83 772.852 270.046C779.075 268.137 785.297 266.564 791.625 265.104C793.207 264.767 794.895 264.318 796.582 264.093L848.156 285.548C848.577 285.772 848.999 284.874 848.472 284.649L809.344 262.183C817.465 261.285 825.691 261.06 833.812 261.846C835.605 261.959 837.293 261.06 838.136 259.375C839.402 256.904 839.929 255.331 840.246 252.298L868.089 262.408C868.722 262.633 869.038 261.959 868.511 261.509L840.878 242.75C840.984 240.504 840.984 238.145 841.089 235.898C841.3 233.202 841.722 230.619 842.144 228.035C855.116 230.394 867.667 234.438 880.323 238.819C880.956 239.044 881.167 238.145 880.639 237.92C868.722 231.405 856.698 224.89 843.937 220.285C845.203 215.567 846.89 210.961 848.577 206.356C864.292 208.265 879.374 213.994 894.35 218.937C894.983 219.161 895.299 218.263 894.666 218.038C880.428 210.961 866.296 203.435 851.214 199.279C853.429 193.438 855.538 187.597 857.12 181.756C866.19 185.013 874.522 190.517 883.487 194.449C884.12 194.674 884.436 194 883.909 193.55C875.471 187.26 867.878 179.397 858.808 174.005C859.651 169.287 859.968 164.457 859.651 159.515C880.85 185.687 912.385 201.638 944.763 202.649ZM945.079 150.304C944.13 137.273 948.876 127.95 960.056 120.536C967.017 116.043 975.876 112.673 984.313 109.416C992.012 106.495 999.078 103.575 1005.09 99.9803C1004.35 101.104 1003.51 102.002 1002.56 103.125C986.422 120.761 968.915 137.049 950.142 151.315C948.244 152.775 946.24 154.572 944.552 156.257C945.185 154.46 945.29 152.55 945.079 150.304ZM977.669 159.402C971.024 164.008 963.747 165.019 955.943 162.323C952.146 161.312 948.243 160.975 944.658 161.874C946.24 159.065 949.193 156.482 952.357 154.235C953.517 153.449 954.677 152.55 955.943 151.539C962.798 156.145 971.024 158.728 978.934 158.504C978.723 158.728 978.196 159.178 977.669 159.402ZM983.575 154.684C975.243 156.032 966.278 153.786 959.001 149.405C961.954 147.046 964.696 144.687 967.544 142.216C972.395 146.147 978.723 148.057 986.317 147.945C987.372 147.945 988.11 147.832 988.954 147.832C987.372 150.191 985.368 152.438 983.575 154.684ZM991.485 143.901C982.731 145.137 975.559 143.789 970.181 140.082C973.239 137.61 976.087 134.915 978.723 132.331C984.313 134.69 989.481 135.926 994.121 135.589H995.598C994.543 138.284 993.278 141.205 991.485 143.901ZM997.707 131.657C993.278 132.556 987.899 131.657 981.887 129.41C984.524 126.827 987.372 124.131 990.219 121.323C992.645 122.446 995.704 123.008 998.657 122.895C999.5 122.895 1000.13 122.895 1000.98 122.783C999.922 125.928 998.973 128.849 997.707 131.657ZM1002.35 119.301C999.184 119.638 995.809 119.638 993.067 118.852C996.969 114.471 1001.29 110.315 1005.3 105.934C1004.46 109.978 1003.51 114.583 1002.35 119.301Z"/>
</mask>
<path d="M1012.16 88.4104L1009.94 90.4323C1008.57 91.7802 1006.88 92.9035 1005.09 94.1391C999.078 98.183 991.274 101.104 983.047 104.361C974.294 107.956 965.329 111.213 957.841 116.268C944.869 124.693 939.384 135.701 940.544 150.978C940.755 155.695 939.173 160.526 936.115 164.232C932.002 168.95 927.994 173.78 925.041 178.498C924.092 175.241 923.037 172.095 922.404 168.276C922.193 166.254 922.088 164.569 922.193 162.435C922.615 157.38 925.146 153.112 929.049 149.967C936.22 144.238 938.962 136.262 941.599 127.838C941.81 126.602 942.021 125.03 942.443 123.794C943.287 99.194 921.982 68.6405 906.162 55.6103L903.737 53.5884L903.842 56.7336C903.842 58.7555 904.053 60.7775 903.842 63.1364C903.209 70.6624 900.783 79.1994 898.252 87.961C895.616 97.6213 892.663 107.282 892.03 116.605C890.553 132.78 895.616 144.238 907.744 152.213C911.541 154.909 914.283 159.402 915.021 164.12C915.971 169.175 916.92 174.23 918.185 178.611C899.096 171.084 881.061 160.975 864.292 148.506C871.675 130.871 879.374 110.315 871.675 92.5665C864.714 76.1665 847.312 68.4158 831.281 62.3501C776.544 42.1308 720.224 26.6294 663.167 16.2952C605.899 5.73626 547.575 0.23214 489.463 0.00748246C431.351 -0.217175 373.344 4.61296 316.076 15.0596C258.913 25.5061 202.594 41.2322 148.384 62.687C139.103 66.2816 129.927 70.1007 120.752 74.0323C113.896 76.9528 104.932 78.5254 103.033 87.0624C98.4982 107.057 101.873 130.084 109.889 148.506C79.0923 172.657 41.968 187.597 4 190.967C20.5583 213.657 40.4915 233.427 62.6395 249.715C56.1006 283.076 49.5616 316.55 43.0227 349.912C42.6008 352.159 42.1789 354.405 42.8117 356.54C44.1828 361.145 49.7726 362.605 54.4131 362.83C67.8074 363.504 80.5688 360.808 92.9084 356.427C79.4087 378.781 75.9283 414.951 79.1978 436.293L79.936 440C80.5688 437.192 81.9399 434.721 83.7328 432.699C84.1547 432.025 84.893 431.575 85.6312 431.014C92.0647 425.173 100.397 420.005 109.256 414.389C118.748 408.548 128.662 402.594 136.15 395.181C149.65 382.712 153.763 368.559 149.755 351.372C148.595 346.879 148.911 342.723 150.599 338.455C154.712 331.94 158.825 325.312 162.833 318.797C166.313 316.775 169.688 314.978 173.169 313.181C198.375 300.15 225.691 291.726 253.534 288.356C257.858 287.907 262.71 287.233 265.663 283.75C269.143 279.594 268.3 272.967 266.823 267.463C263.237 254.208 256.909 241.852 248.683 231.18C405.406 192.539 570.251 192.427 726.974 230.956C718.642 241.852 712.314 254.433 708.307 267.912C707.041 272.293 705.986 277.348 708.201 281.279C710.732 285.772 716.322 287.008 721.068 287.682C758.614 293.972 795.211 307.227 828.433 326.885C858.702 344.745 890.553 368.671 924.513 361.145C927.677 360.471 931.158 359.011 932.423 355.866C933.162 353.731 932.74 351.485 932.318 349.463C925.779 316.213 919.346 282.739 912.807 249.49C924.197 240.841 934.955 231.18 945.079 221.071C954.255 211.972 963.009 202.312 971.13 192.202C957.525 190.293 944.025 187.148 930.947 182.767C932.845 179.397 935.271 175.915 938.013 172.32C939.173 171.084 940.544 169.737 942.126 168.726C946.029 166.367 951.091 165.805 955.626 167.265C964.063 169.961 971.763 167.602 979.673 164.682C980.938 164.008 982.204 163.334 983.258 162.772C1002.56 148.843 1012.79 112.449 1013 90.9939L1012.16 88.4104ZM909.959 147.832C899.623 140.98 895.405 131.208 896.565 117.279C897.303 108.517 900.045 99.0816 902.576 89.8706C904.897 81.446 907.111 73.6953 908.061 66.5062C908.483 67.6295 908.483 69.0898 908.904 70.4378C912.596 94.7008 914.283 119.413 913.967 143.901C913.861 146.484 913.967 149.068 914.178 151.539C912.912 150.079 911.541 148.843 909.959 147.832ZM914.389 88.1857C913.65 82.12 912.912 75.9419 911.963 69.8761C914.916 73.1336 917.553 76.8405 920.189 80.6597C918.818 83.5802 916.709 86.3885 914.389 88.1857ZM914.916 92.3419C917.131 90.8816 919.346 88.5227 921.033 85.9391C921.455 85.1528 921.877 84.4789 922.299 83.8049C924.092 86.5008 925.568 89.0843 926.834 92.1172C924.83 96.2734 921.139 100.767 915.76 104.361C915.549 100.43 915.338 96.1611 914.916 92.3419ZM927.888 97.0597C928.205 96.6104 928.31 96.0487 928.732 95.5994C930.103 98.4077 931.369 101.328 932.423 104.361C928.099 112.786 923.037 117.953 916.709 120.312C916.498 116.268 916.393 112.112 915.971 108.18C921.139 104.923 925.252 101.104 927.888 97.0597ZM916.709 123.794C922.615 121.884 927.888 117.616 932.318 111.101C933.056 110.315 933.373 109.641 933.9 108.63C934.849 111.55 935.482 114.695 935.482 117.728C931.58 125.479 924.724 131.994 916.92 135.589C916.92 131.657 916.814 127.613 916.709 123.794ZM916.92 143.676C916.92 142.104 917.025 140.756 916.92 139.071C924.197 136.15 931.052 130.421 935.904 123.569C935.693 124.243 935.798 124.805 935.798 125.254C935.06 133.567 931.369 140.419 925.041 145.586C921.877 147.945 919.557 151.202 918.185 154.909C917.236 151.989 916.92 147.832 916.92 143.676ZM92.6975 371.704C102.717 368.334 111.26 368.334 118.115 371.816C115.162 375.299 112.209 379.005 109.361 382.6C102.4 381.027 96.0724 380.915 90.6936 381.926C90.0608 382.038 89.428 382.151 88.9007 382.263C89.9554 378.781 91.1155 375.074 92.6975 371.704ZM143.005 340.926C141.529 344.52 138.576 348.227 135.412 351.485C134.251 352.72 133.091 354.068 131.931 355.304C123.388 351.372 113.264 350.361 104.193 352.159C104.615 351.485 105.143 350.923 105.459 350.923L105.564 350.811C110.838 348.452 115.9 345.756 120.963 342.948C123.916 342.498 126.869 342.498 130.033 342.835C134.568 343.285 138.892 342.723 143.005 340.926ZM132.986 336.096C137.31 333.512 141.74 330.929 145.958 328.345C144.904 330.03 143.849 331.715 142.794 333.4C139.947 335.422 136.572 336.32 132.986 336.096ZM129.084 358.562C126.13 361.931 123.283 365.526 120.33 368.783C113.896 365.414 106.303 364.29 97.549 366.312C96.7052 366.312 95.4396 366.537 94.385 366.762C95.756 363.279 97.7599 360.246 99.4474 357.663C108.939 354.293 119.908 354.63 129.084 358.562ZM87.7406 386.981C92.6975 384.959 99.131 384.734 106.514 386.082C103.772 389.789 101.135 393.608 98.3927 397.315C95.2287 396.304 91.6428 396.529 88.2679 397.203C87.3187 397.54 86.6859 397.652 85.7367 398.101C86.1586 394.394 86.8968 390.688 87.7406 386.981ZM84.893 402.594C88.3734 401.247 92.2756 400.573 95.6506 401.134C91.5374 406.975 87.6351 413.041 83.8383 418.77C83.9438 413.49 84.3656 407.986 84.893 402.594ZM133.197 391.586C125.92 398.551 116.428 404.055 107.252 409.783C99.131 414.726 91.221 419.444 84.9984 424.836C85.6312 423.712 86.264 422.252 87.3187 420.792C102.4 397.09 119.592 374.4 138.576 353.844C140.685 351.485 142.689 349.238 144.271 346.879C144.165 349.126 144.376 351.485 145.114 353.844C148.489 368.671 144.693 380.69 133.197 391.586ZM219.785 279.257C191.731 285.323 166.208 301.948 141.529 317.674C114.846 334.635 86.475 351.485 55.4678 353.507C73.3971 325.2 64.5379 285.997 78.4595 255.219C80.2524 251.624 82.0454 247.693 81.0962 243.874C80.0415 239.942 76.0338 237.696 72.5534 235.786C64.5379 231.63 56.9443 226.463 49.878 221.071C44.4992 217.027 33.0033 209.726 30.7885 203.211C46.925 200.29 61.6903 198.493 76.772 190.742C83.8383 187.148 90.5882 182.654 96.9162 177.6C100.08 175.016 103.033 172.32 105.986 169.512C107.568 167.827 114.107 162.884 114.213 160.413C113.896 164.906 114.213 169.063 114.846 173.443C105.037 178.835 97.338 187.148 88.3734 193.775C87.9515 194.112 88.2679 194.898 88.7952 194.674C98.0763 190.517 106.83 184.564 116.428 181.419C117.904 187.372 120.013 193.326 122.123 199.054C106.725 203.211 92.2756 211.074 77.6158 218.263C76.983 218.487 77.4048 219.386 77.9322 219.161C93.2248 213.994 108.728 208.153 124.759 206.468C126.341 210.961 128.029 215.454 129.4 220.06C116.322 224.778 103.877 231.405 91.6428 238.257C91.221 238.482 91.4319 239.38 91.9592 239.156C104.932 234.663 118.01 230.507 131.404 228.148C131.826 230.619 132.353 233.202 132.564 235.786C132.775 237.808 132.88 239.83 132.986 241.964L103.666 261.846C103.244 262.183 103.561 262.97 104.088 262.745L133.724 250.613C134.357 254.77 135.306 258.926 137.626 262.408C145.431 262.52 153.235 262.857 160.934 263.644L123.81 285.098C123.388 285.323 123.705 286.222 124.127 285.997L173.696 265.329C182.239 266.564 190.887 268.249 199.219 270.383C179.918 281.167 160.091 291.613 139.314 298.803C138.681 299.027 138.997 299.926 139.525 299.813C164.098 293.972 187.723 283.75 210.926 273.641C215.777 275.101 220.734 276.786 225.586 278.471C223.898 278.359 222 278.808 219.785 279.257ZM249.21 264.205C249.632 266.115 250.265 267.912 250.792 269.822C239.507 262.633 226.851 258.476 213.984 256.118C207.34 254.994 200.59 254.096 193.84 253.759C187.723 253.422 180.129 254.433 174.434 252.972C179.918 250.95 238.031 232.191 238.874 234.101C242.777 243.874 246.257 253.871 249.21 264.205ZM487.038 180.632C360.583 180.632 247.944 200.964 152.075 240.841L150.177 241.627L149.86 239.493C141.74 193.438 127.712 139.408 111.154 91.1063L110.521 89.1967L129.505 83.9172C249.527 51.4542 362.798 20.5637 487.038 20.5637C487.143 20.5637 487.248 20.5637 487.354 20.5637C611.277 20.5637 724.76 51.4541 844.675 84.1419L863.87 89.4213L863.237 91.3309C856.698 110.539 851.636 131.432 846.89 151.652C845.624 157.268 844.253 162.66 842.988 168.052C840.878 176.139 838.558 184.452 835.921 193.326C831.175 208.939 826.429 224.89 824.637 239.717L824.426 241.964L822.422 241.178C724.865 201.076 612.016 180.632 487.038 180.632ZM744.271 261.06C737.205 263.082 730.138 265.216 723.916 269.597C726.025 260.835 728.662 252.411 731.615 243.986C732.67 241.065 734.041 234.663 736.888 233.876C739.525 232.978 747.329 237.022 750.177 237.696C758.72 240.279 767.368 242.75 775.805 245.222C780.235 246.457 784.77 247.805 789.2 249.041C792.786 250.052 797.953 252.748 801.645 252.635C782.977 252.972 764.204 255.781 746.064 260.274C745.431 260.835 744.798 260.948 744.271 261.06ZM944.763 202.649C931.263 215.342 916.498 226.575 900.994 236.011C897.725 238.033 894.245 240.167 893.295 244.098C892.979 246.457 893.506 248.704 894.35 250.726C894.772 251.961 895.51 253.309 896.143 254.545C910.592 285.098 900.889 324.975 918.924 353.282C888.022 350.811 859.757 334.074 833.074 317.112C806.391 300.15 780.235 284.312 749.439 277.797C752.497 275.663 756.716 274.315 761.04 273.192C784.348 283.301 807.867 293.635 832.441 299.364C833.074 299.476 833.285 298.578 832.652 298.353C811.875 291.164 792.153 280.83 772.852 270.046C779.075 268.137 785.297 266.564 791.625 265.104C793.207 264.767 794.895 264.318 796.582 264.093L848.156 285.548C848.577 285.772 848.999 284.874 848.472 284.649L809.344 262.183C817.465 261.285 825.691 261.06 833.812 261.846C835.605 261.959 837.293 261.06 838.136 259.375C839.402 256.904 839.929 255.331 840.246 252.298L868.089 262.408C868.722 262.633 869.038 261.959 868.511 261.509L840.878 242.75C840.984 240.504 840.984 238.145 841.089 235.898C841.3 233.202 841.722 230.619 842.144 228.035C855.116 230.394 867.667 234.438 880.323 238.819C880.956 239.044 881.167 238.145 880.639 237.92C868.722 231.405 856.698 224.89 843.937 220.285C845.203 215.567 846.89 210.961 848.577 206.356C864.292 208.265 879.374 213.994 894.35 218.937C894.983 219.161 895.299 218.263 894.666 218.038C880.428 210.961 866.296 203.435 851.214 199.279C853.429 193.438 855.538 187.597 857.12 181.756C866.19 185.013 874.522 190.517 883.487 194.449C884.12 194.674 884.436 194 883.909 193.55C875.471 187.26 867.878 179.397 858.808 174.005C859.651 169.287 859.968 164.457 859.651 159.515C880.85 185.687 912.385 201.638 944.763 202.649ZM945.079 150.304C944.13 137.273 948.876 127.95 960.056 120.536C967.017 116.043 975.876 112.673 984.313 109.416C992.012 106.495 999.078 103.575 1005.09 99.9803C1004.35 101.104 1003.51 102.002 1002.56 103.125C986.422 120.761 968.915 137.049 950.142 151.315C948.244 152.775 946.24 154.572 944.552 156.257C945.185 154.46 945.29 152.55 945.079 150.304ZM977.669 159.402C971.024 164.008 963.747 165.019 955.943 162.323C952.146 161.312 948.243 160.975 944.658 161.874C946.24 159.065 949.193 156.482 952.357 154.235C953.517 153.449 954.677 152.55 955.943 151.539C962.798 156.145 971.024 158.728 978.934 158.504C978.723 158.728 978.196 159.178 977.669 159.402ZM983.575 154.684C975.243 156.032 966.278 153.786 959.001 149.405C961.954 147.046 964.696 144.687 967.544 142.216C972.395 146.147 978.723 148.057 986.317 147.945C987.372 147.945 988.11 147.832 988.954 147.832C987.372 150.191 985.368 152.438 983.575 154.684ZM991.485 143.901C982.731 145.137 975.559 143.789 970.181 140.082C973.239 137.61 976.087 134.915 978.723 132.331C984.313 134.69 989.481 135.926 994.121 135.589H995.598C994.543 138.284 993.278 141.205 991.485 143.901ZM997.707 131.657C993.278 132.556 987.899 131.657 981.887 129.41C984.524 126.827 987.372 124.131 990.219 121.323C992.645 122.446 995.704 123.008 998.657 122.895C999.5 122.895 1000.13 122.895 1000.98 122.783C999.922 125.928 998.973 128.849 997.707 131.657ZM1002.35 119.301C999.184 119.638 995.809 119.638 993.067 118.852C996.969 114.471 1001.29 110.315 1005.3 105.934C1004.46 109.978 1003.51 114.583 1002.35 119.301Z" fill="black"/>
<path d="M1012.16 88.4104L1009.94 90.4323C1008.57 91.7802 1006.88 92.9035 1005.09 94.1391C999.078 98.183 991.274 101.104 983.047 104.361C974.294 107.956 965.329 111.213 957.841 116.268C944.869 124.693 939.384 135.701 940.544 150.978C940.755 155.695 939.173 160.526 936.115 164.232C932.002 168.95 927.994 173.78 925.041 178.498C924.092 175.241 923.037 172.095 922.404 168.276C922.193 166.254 922.088 164.569 922.193 162.435C922.615 157.38 925.146 153.112 929.049 149.967C936.22 144.238 938.962 136.262 941.599 127.838C941.81 126.602 942.021 125.03 942.443 123.794C943.287 99.194 921.982 68.6405 906.162 55.6103L903.737 53.5884L903.842 56.7336C903.842 58.7555 904.053 60.7775 903.842 63.1364C903.209 70.6624 900.783 79.1994 898.252 87.961C895.616 97.6213 892.663 107.282 892.03 116.605C890.553 132.78 895.616 144.238 907.744 152.213C911.541 154.909 914.283 159.402 915.021 164.12C915.971 169.175 916.92 174.23 918.185 178.611C899.096 171.084 881.061 160.975 864.292 148.506C871.675 130.871 879.374 110.315 871.675 92.5665C864.714 76.1665 847.312 68.4158 831.281 62.3501C776.544 42.1308 720.224 26.6294 663.167 16.2952C605.899 5.73626 547.575 0.23214 489.463 0.00748246C431.351 -0.217175 373.344 4.61296 316.076 15.0596C258.913 25.5061 202.594 41.2322 148.384 62.687C139.103 66.2816 129.927 70.1007 120.752 74.0323C113.896 76.9528 104.932 78.5254 103.033 87.0624C98.4982 107.057 101.873 130.084 109.889 148.506C79.0923 172.657 41.968 187.597 4 190.967C20.5583 213.657 40.4915 233.427 62.6395 249.715C56.1006 283.076 49.5616 316.55 43.0227 349.912C42.6008 352.159 42.1789 354.405 42.8117 356.54C44.1828 361.145 49.7726 362.605 54.4131 362.83C67.8074 363.504 80.5688 360.808 92.9084 356.427C79.4087 378.781 75.9283 414.951 79.1978 436.293L79.936 440C80.5688 437.192 81.9399 434.721 83.7328 432.699C84.1547 432.025 84.893 431.575 85.6312 431.014C92.0647 425.173 100.397 420.005 109.256 414.389C118.748 408.548 128.662 402.594 136.15 395.181C149.65 382.712 153.763 368.559 149.755 351.372C148.595 346.879 148.911 342.723 150.599 338.455C154.712 331.94 158.825 325.312 162.833 318.797C166.313 316.775 169.688 314.978 173.169 313.181C198.375 300.15 225.691 291.726 253.534 288.356C257.858 287.907 262.71 287.233 265.663 283.75C269.143 279.594 268.3 272.967 266.823 267.463C263.237 254.208 256.909 241.852 248.683 231.18C405.406 192.539 570.251 192.427 726.974 230.956C718.642 241.852 712.314 254.433 708.307 267.912C707.041 272.293 705.986 277.348 708.201 281.279C710.732 285.772 716.322 287.008 721.068 287.682C758.614 293.972 795.211 307.227 828.433 326.885C858.702 344.745 890.553 368.671 924.513 361.145C927.677 360.471 931.158 359.011 932.423 355.866C933.162 353.731 932.74 351.485 932.318 349.463C925.779 316.213 919.346 282.739 912.807 249.49C924.197 240.841 934.955 231.18 945.079 221.071C954.255 211.972 963.009 202.312 971.13 192.202C957.525 190.293 944.025 187.148 930.947 182.767C932.845 179.397 935.271 175.915 938.013 172.32C939.173 171.084 940.544 169.737 942.126 168.726C946.029 166.367 951.091 165.805 955.626 167.265C964.063 169.961 971.763 167.602 979.673 164.682C980.938 164.008 982.204 163.334 983.258 162.772C1002.56 148.843 1012.79 112.449 1013 90.9939L1012.16 88.4104ZM909.959 147.832C899.623 140.98 895.405 131.208 896.565 117.279C897.303 108.517 900.045 99.0816 902.576 89.8706C904.897 81.446 907.111 73.6953 908.061 66.5062C908.483 67.6295 908.483 69.0898 908.904 70.4378C912.596 94.7008 914.283 119.413 913.967 143.901C913.861 146.484 913.967 149.068 914.178 151.539C912.912 150.079 911.541 148.843 909.959 147.832ZM914.389 88.1857C913.65 82.12 912.912 75.9419 911.963 69.8761C914.916 73.1336 917.553 76.8405 920.189 80.6597C918.818 83.5802 916.709 86.3885 914.389 88.1857ZM914.916 92.3419C917.131 90.8816 919.346 88.5227 921.033 85.9391C921.455 85.1528 921.877 84.4789 922.299 83.8049C924.092 86.5008 925.568 89.0843 926.834 92.1172C924.83 96.2734 921.139 100.767 915.76 104.361C915.549 100.43 915.338 96.1611 914.916 92.3419ZM927.888 97.0597C928.205 96.6104 928.31 96.0487 928.732 95.5994C930.103 98.4077 931.369 101.328 932.423 104.361C928.099 112.786 923.037 117.953 916.709 120.312C916.498 116.268 916.393 112.112 915.971 108.18C921.139 104.923 925.252 101.104 927.888 97.0597ZM916.709 123.794C922.615 121.884 927.888 117.616 932.318 111.101C933.056 110.315 933.373 109.641 933.9 108.63C934.849 111.55 935.482 114.695 935.482 117.728C931.58 125.479 924.724 131.994 916.92 135.589C916.92 131.657 916.814 127.613 916.709 123.794ZM916.92 143.676C916.92 142.104 917.025 140.756 916.92 139.071C924.197 136.15 931.052 130.421 935.904 123.569C935.693 124.243 935.798 124.805 935.798 125.254C935.06 133.567 931.369 140.419 925.041 145.586C921.877 147.945 919.557 151.202 918.185 154.909C917.236 151.989 916.92 147.832 916.92 143.676ZM92.6975 371.704C102.717 368.334 111.26 368.334 118.115 371.816C115.162 375.299 112.209 379.005 109.361 382.6C102.4 381.027 96.0724 380.915 90.6936 381.926C90.0608 382.038 89.428 382.151 88.9007 382.263C89.9554 378.781 91.1155 375.074 92.6975 371.704ZM143.005 340.926C141.529 344.52 138.576 348.227 135.412 351.485C134.251 352.72 133.091 354.068 131.931 355.304C123.388 351.372 113.264 350.361 104.193 352.159C104.615 351.485 105.143 350.923 105.459 350.923L105.564 350.811C110.838 348.452 115.9 345.756 120.963 342.948C123.916 342.498 126.869 342.498 130.033 342.835C134.568 343.285 138.892 342.723 143.005 340.926ZM132.986 336.096C137.31 333.512 141.74 330.929 145.958 328.345C144.904 330.03 143.849 331.715 142.794 333.4C139.947 335.422 136.572 336.32 132.986 336.096ZM129.084 358.562C126.13 361.931 123.283 365.526 120.33 368.783C113.896 365.414 106.303 364.29 97.549 366.312C96.7052 366.312 95.4396 366.537 94.385 366.762C95.756 363.279 97.7599 360.246 99.4474 357.663C108.939 354.293 119.908 354.63 129.084 358.562ZM87.7406 386.981C92.6975 384.959 99.131 384.734 106.514 386.082C103.772 389.789 101.135 393.608 98.3927 397.315C95.2287 396.304 91.6428 396.529 88.2679 397.203C87.3187 397.54 86.6859 397.652 85.7367 398.101C86.1586 394.394 86.8968 390.688 87.7406 386.981ZM84.893 402.594C88.3734 401.247 92.2756 400.573 95.6506 401.134C91.5374 406.975 87.6351 413.041 83.8383 418.77C83.9438 413.49 84.3656 407.986 84.893 402.594ZM133.197 391.586C125.92 398.551 116.428 404.055 107.252 409.783C99.131 414.726 91.221 419.444 84.9984 424.836C85.6312 423.712 86.264 422.252 87.3187 420.792C102.4 397.09 119.592 374.4 138.576 353.844C140.685 351.485 142.689 349.238 144.271 346.879C144.165 349.126 144.376 351.485 145.114 353.844C148.489 368.671 144.693 380.69 133.197 391.586ZM219.785 279.257C191.731 285.323 166.208 301.948 141.529 317.674C114.846 334.635 86.475 351.485 55.4678 353.507C73.3971 325.2 64.5379 285.997 78.4595 255.219C80.2524 251.624 82.0454 247.693 81.0962 243.874C80.0415 239.942 76.0338 237.696 72.5534 235.786C64.5379 231.63 56.9443 226.463 49.878 221.071C44.4992 217.027 33.0033 209.726 30.7885 203.211C46.925 200.29 61.6903 198.493 76.772 190.742C83.8383 187.148 90.5882 182.654 96.9162 177.6C100.08 175.016 103.033 172.32 105.986 169.512C107.568 167.827 114.107 162.884 114.213 160.413C113.896 164.906 114.213 169.063 114.846 173.443C105.037 178.835 97.338 187.148 88.3734 193.775C87.9515 194.112 88.2679 194.898 88.7952 194.674C98.0763 190.517 106.83 184.564 116.428 181.419C117.904 187.372 120.013 193.326 122.123 199.054C106.725 203.211 92.2756 211.074 77.6158 218.263C76.983 218.487 77.4048 219.386 77.9322 219.161C93.2248 213.994 108.728 208.153 124.759 206.468C126.341 210.961 128.029 215.454 129.4 220.06C116.322 224.778 103.877 231.405 91.6428 238.257C91.221 238.482 91.4319 239.38 91.9592 239.156C104.932 234.663 118.01 230.507 131.404 228.148C131.826 230.619 132.353 233.202 132.564 235.786C132.775 237.808 132.88 239.83 132.986 241.964L103.666 261.846C103.244 262.183 103.561 262.97 104.088 262.745L133.724 250.613C134.357 254.77 135.306 258.926 137.626 262.408C145.431 262.52 153.235 262.857 160.934 263.644L123.81 285.098C123.388 285.323 123.705 286.222 124.127 285.997L173.696 265.329C182.239 266.564 190.887 268.249 199.219 270.383C179.918 281.167 160.091 291.613 139.314 298.803C138.681 299.027 138.997 299.926 139.525 299.813C164.098 293.972 187.723 283.75 210.926 273.641C215.777 275.101 220.734 276.786 225.586 278.471C223.898 278.359 222 278.808 219.785 279.257ZM249.21 264.205C249.632 266.115 250.265 267.912 250.792 269.822C239.507 262.633 226.851 258.476 213.984 256.118C207.34 254.994 200.59 254.096 193.84 253.759C187.723 253.422 180.129 254.433 174.434 252.972C179.918 250.95 238.031 232.191 238.874 234.101C242.777 243.874 246.257 253.871 249.21 264.205ZM487.038 180.632C360.583 180.632 247.944 200.964 152.075 240.841L150.177 241.627L149.86 239.493C141.74 193.438 127.712 139.408 111.154 91.1063L110.521 89.1967L129.505 83.9172C249.527 51.4542 362.798 20.5637 487.038 20.5637C487.143 20.5637 487.248 20.5637 487.354 20.5637C611.277 20.5637 724.76 51.4541 844.675 84.1419L863.87 89.4213L863.237 91.3309C856.698 110.539 851.636 131.432 846.89 151.652C845.624 157.268 844.253 162.66 842.988 168.052C840.878 176.139 838.558 184.452 835.921 193.326C831.175 208.939 826.429 224.89 824.637 239.717L824.426 241.964L822.422 241.178C724.865 201.076 612.016 180.632 487.038 180.632ZM744.271 261.06C737.205 263.082 730.138 265.216 723.916 269.597C726.025 260.835 728.662 252.411 731.615 243.986C732.67 241.065 734.041 234.663 736.888 233.876C739.525 232.978 747.329 237.022 750.177 237.696C758.72 240.279 767.368 242.75 775.805 245.222C780.235 246.457 784.77 247.805 789.2 249.041C792.786 250.052 797.953 252.748 801.645 252.635C782.977 252.972 764.204 255.781 746.064 260.274C745.431 260.835 744.798 260.948 744.271 261.06ZM944.763 202.649C931.263 215.342 916.498 226.575 900.994 236.011C897.725 238.033 894.245 240.167 893.295 244.098C892.979 246.457 893.506 248.704 894.35 250.726C894.772 251.961 895.51 253.309 896.143 254.545C910.592 285.098 900.889 324.975 918.924 353.282C888.022 350.811 859.757 334.074 833.074 317.112C806.391 300.15 780.235 284.312 749.439 277.797C752.497 275.663 756.716 274.315 761.04 273.192C784.348 283.301 807.867 293.635 832.441 299.364C833.074 299.476 833.285 298.578 832.652 298.353C811.875 291.164 792.153 280.83 772.852 270.046C779.075 268.137 785.297 266.564 791.625 265.104C793.207 264.767 794.895 264.318 796.582 264.093L848.156 285.548C848.577 285.772 848.999 284.874 848.472 284.649L809.344 262.183C817.465 261.285 825.691 261.06 833.812 261.846C835.605 261.959 837.293 261.06 838.136 259.375C839.402 256.904 839.929 255.331 840.246 252.298L868.089 262.408C868.722 262.633 869.038 261.959 868.511 261.509L840.878 242.75C840.984 240.504 840.984 238.145 841.089 235.898C841.3 233.202 841.722 230.619 842.144 228.035C855.116 230.394 867.667 234.438 880.323 238.819C880.956 239.044 881.167 238.145 880.639 237.92C868.722 231.405 856.698 224.89 843.937 220.285C845.203 215.567 846.89 210.961 848.577 206.356C864.292 208.265 879.374 213.994 894.35 218.937C894.983 219.161 895.299 218.263 894.666 218.038C880.428 210.961 866.296 203.435 851.214 199.279C853.429 193.438 855.538 187.597 857.12 181.756C866.19 185.013 874.522 190.517 883.487 194.449C884.12 194.674 884.436 194 883.909 193.55C875.471 187.26 867.878 179.397 858.808 174.005C859.651 169.287 859.968 164.457 859.651 159.515C880.85 185.687 912.385 201.638 944.763 202.649ZM945.079 150.304C944.13 137.273 948.876 127.95 960.056 120.536C967.017 116.043 975.876 112.673 984.313 109.416C992.012 106.495 999.078 103.575 1005.09 99.9803C1004.35 101.104 1003.51 102.002 1002.56 103.125C986.422 120.761 968.915 137.049 950.142 151.315C948.244 152.775 946.24 154.572 944.552 156.257C945.185 154.46 945.29 152.55 945.079 150.304ZM977.669 159.402C971.024 164.008 963.747 165.019 955.943 162.323C952.146 161.312 948.243 160.975 944.658 161.874C946.24 159.065 949.193 156.482 952.357 154.235C953.517 153.449 954.677 152.55 955.943 151.539C962.798 156.145 971.024 158.728 978.934 158.504C978.723 158.728 978.196 159.178 977.669 159.402ZM983.575 154.684C975.243 156.032 966.278 153.786 959.001 149.405C961.954 147.046 964.696 144.687 967.544 142.216C972.395 146.147 978.723 148.057 986.317 147.945C987.372 147.945 988.11 147.832 988.954 147.832C987.372 150.191 985.368 152.438 983.575 154.684ZM991.485 143.901C982.731 145.137 975.559 143.789 970.181 140.082C973.239 137.61 976.087 134.915 978.723 132.331C984.313 134.69 989.481 135.926 994.121 135.589H995.598C994.543 138.284 993.278 141.205 991.485 143.901ZM997.707 131.657C993.278 132.556 987.899 131.657 981.887 129.41C984.524 126.827 987.372 124.131 990.219 121.323C992.645 122.446 995.704 123.008 998.657 122.895C999.5 122.895 1000.13 122.895 1000.98 122.783C999.922 125.928 998.973 128.849 997.707 131.657ZM1002.35 119.301C999.184 119.638 995.809 119.638 993.067 118.852C996.969 114.471 1001.29 110.315 1005.3 105.934C1004.46 109.978 1003.51 114.583 1002.35 119.301Z" stroke="black" stroke-width="2" mask="url(#path-1-inside-1_0_1)"/>
</g>
<defs>
<filter id="filter0_d_0_1" x="0" y="0" width="1017" height="448" filterUnits="userSpaceOnUse" color-interpolation-filters="sRGB">
<feFlood flood-opacity="0" result="BackgroundImageFix"/>
<feColorMatrix in="SourceAlpha" type="matrix" values="0 0 0 0 0 0 0 0 0 0 0 0 0 0 0 0 0 0 127 0" result="hardAlpha"/>
<feOffset dy="4"/>
<feGaussianBlur stdDeviation="2"/>
<feComposite in2="hardAlpha" operator="out"/>
<feColorMatrix type="matrix" values="0 0 0 0 0 0 0 0 0 0 0 0 0 0 0 0 0 0 0.25 0"/>
<feBlend mode="normal" in2="BackgroundImageFix" result="effect1_dropShadow_0_1"/>
<feBlend mode="normal" in="SourceGraphic" in2="effect1_dropShadow_0_1" result="shape"/>
</filter>
</defs>
</svg>
