<svg width="1017" height="448" viewBox="0 0 1017 448" fill="none" xmlns="http://www.w3.org/2000/svg">
<g filter="url(#filter0_d_0_1)">
<mask id="path-1-inside-1_0_1" fill="white">
<path d="M1012.16 88.4104L1009.94 90.4323C1008.57 91.7802 1006.88 92.9035 1005.09 94.1391C999.078 98.183 991.274 101.104 983.047 104.361C974.294 107.956 965.329 111.213 957.841 116.268C944.869 124.693 939.384 135.701 940.544 150.978C940.755 155.695 939.173 160.526 936.115 164.232C932.002 168.95 927.994 173.78 925.041 178.498C924.092 175.241 923.037 172.095 922.404 168.276C922.193 166.254 922.088 164.569 922.193 162.435C922.615 157.38 925.146 153.112 929.049 149.967C936.22 144.238 938.962 136.262 941.599 127.838C941.81 126.602 942.021 125.03 942.443 123.794C943.287 99.194 921.982 68.6405 906.162 55.6103L903.737 53.5884L903.842 56.7336C903.842 58.7555 904.053 60.7775 903.842 63.1364C903.209 70.6624 900.783 79.1994 898.252 87.961C895.616 97.6213 892.663 107.282 892.03 116.605C890.553 132.78 895.616 144.238 907.744 152.213C911.541 154.909 914.283 159.402 915.021 164.12C915.971 169.175 916.92 174.23 918.185 178.611C899.096 171.084 881.061 160.975 864.292 148.506C871.675 130.871 879.374 110.315 871.675 92.5665C864.714 76.1665 847.312 68.4158 831.281 62.3501C776.544 42.1308 720.224 26.6294 663.167 16.2952C605.899 5.73626 547.575 0.23214 489.463 0.00748246C431.351 -0.217175 373.344 4.61296 316.076 15.0596C258.913 25.5061 202.594 41.2322 148.384 62.687C139.103 66.2816 129.927 70.1007 120.752 74.0323C113.896 76.9528 104.932 78.5254 103.033 87.0624C98.4982 107.057 101.873 130.084 109.889 148.506C79.0923 172.657 41.968 187.597 4 190.967C20.5583 213.657 40.4915 233.427 62.6395 249.715C56.1006 283.076 49.5616 316.55 43.0227 349.912C42.6008 352.159 42.1789 354.405 42.8117 356.54C44.1828 361.145 49.7726 362.605 54.4131 362.83C67.8074 363.504 80.5688 360.808 92.9084 356.427C79.4087 378.781 75.9283 414.951 79.1978 436.293L79.936 440C80.5688 437.192 81.9399 434.721 83.7328 432.699C84.1547 432.025 84.893 431.575 85.6312 431.014C92.0647 425.173 100.397 420.005 109.256 414.389C118.748 408.548 128.662 402.594 136.15 395.181C149.65 382.712 153.763 368.559 149.755 351.372C148.595 346.879 148.911 342.723 150.599 338.455C154.712 331.94 158.825 325.312 162.833 318.797C166.313 316.775 169.688 314.978 173.169 313.181C198.375 300.15 225.691 291.726 253.534 288.356C257.858 287.907 262.71 287.233 265.663 283.75C269.143 279.594 268.3 272.967 266.823 267.463C263.237 254.208 256.909 241.852 248.683 231.18C405.406 192.539 570.251 192.427 726.974 230.956C718.642 241.852 712.314 254.433 708.307 267.912C707.041 272.293 705.986 277.348 708.201 281.279C710.732 285.772 716.322 287.008 721.068 287.682C758.614 293.972 795.211 307.227 828.433 326.885C858.702 344.745 890.553 368.671 924.513 361.145C927.677 360.471 931.158 359.011 932.423 355.866C933.162 353.731 932.74 351.485 932.318 349.463C925.779 316.213 919.346 282.739 912.807 249.49C924.197 240.841 934.955 231.18 945.079 221.071C954.255 211.972 963.009 202.312 971.13 192.202C957.525 190.293 944.025 187.148 930.947 182.767C932.845 179.397 935.271 175.915 938.013 172.32C939.173 171.084 940.544 169.737 942.126 168.726C946.029 166.367 951.091 165.805 955.626 167.265C964.063 169.961 971.763 167.602 979.673 164.682C980.938 164.008 982.204 163.334 983.258 162.772C1002.56 148.843 1012.79 112.449 1013 90.9939L1012.16 88.4104ZM909.959 147.832C899.623 140.98 895.405 131.208 896.565 117.279C897.303 108.517 900.045 99.0816 902.576 89.8706C904.897 81.446 907.111 73.6953 908.061 66.5062C908.483 67.6295 908.483 69.0898 908.904 70.4378C912.596 94.7008 914.283 119.413 913.967 143.901C913.861 146.484 913.967 149.068 914.178 151.539C912.912 150.079 911.541 148.843 909.959 147.832ZM914.389 88.1857C913.65 82.12 912.912 75.9419 911.963 69.8761C914.916 73.1336 917.553 76.8405 920.189 80.6597C918.818 83.5802 916.709 86.3885 914.389 88.1857ZM914.916 92.3419C917.131 90.8816 919.346 88.5227 921.033 85.9391C921.455 85.1528 921.877 84.4789 922.299 83.8049C924.092 86.5008 925.568 89.0843 926.834 92.1172C924.83 96.2734 921.139 100.767 915.76 104.361C915.549 100.43 915.338 96.1611 914.916 92.3419ZM927.888 97.0597C928.205 96.6104 928.31 96.0487 928.732 95.5994C930.103 98.4077 931.369 101.328 932.423 104.361C928.099 112.786 923.037 117.953 916.709 120.312C916.498 116.268 916.393 112.112 915.971 108.18C921.139 104.923 925.252 101.104 927.888 97.0597ZM916.709 123.794C922.615 121.884 927.888 117.616 932.318 111.101C933.056 110.315 933.373 109.641 933.9 108.63C934.849 111.55 935.482 114.695 935.482 117.728C931.58 125.479 924.724 131.994 916.92 135.589C916.92 131.657 916.814 127.613 916.709 123.794ZM916.92 143.676C916.92 142.104 917.025 140.756 916.92 139.071C924.197 136.15 931.052 130.421 935.904 123.569C935.693 124.243 935.798 124.805 935.798 125.254C935.06 133.567 931.369 140.419 925.041 145.586C921.877 147.945 919.557 151.202 918.185 154.909C917.236 151.989 916.92 147.832 916.92 143.676ZM92.6975 371.704C102.717 368.334 111.26 368.334 118.115 371.816C115.162 375.299 112.209 379.005 109.361 382.6C102.4 381.027 96.0724 380.915 90.6936 381.926C90.0608 382.038 89.428 382.151 88.9007 382.263C89.9554 378.781 91.1155 375.074 92.6975 371.704ZM143.005 340.926C141.529 344.52 138.576 348.227 135.412 351.485C134.251 352.72 133.091 354.068 131.931 355.304C123.388 351.372 113.264 350.361 104.193 352.159C104.615 351.485 105.143 350.923 105.459 350.923L105.564 350.811C110.838 348.452 115.9 345.756 120.963 342.948C123.916 342.498 126.869 342.498 130.033 342.835C134.568 343.285 138.892 342.723 143.005 340.926ZM132.986 336.096C137.31 333.512 141.74 330.929 145.958 328.345C144.904 330.03 143.849 331.715 142.794 333.4C139.947 335.422 136.572 336.32 132.986 336.096ZM129.084 358.562C126.13 361.931 123.283 365.526 120.33 368.783C113.896 365.414 106.303 364.29 97.549 366.312C96.7052 366.312 95.4396 366.537 94.385 366.762C95.756 363.279 97.7599 360.246 99.4474 357.663C108.939 354.293 119.908 354.63 129.084 358.562ZM87.7406 386.981C92.6975 384.959 99.131 384.734 106.514 386.082C103.772 389.789 101.135 393.608 98.3927 397.315C95.2287 396.304 91.6428 396.529 88.2679 397.203C87.3187 397.54 86.6859 397.652 85.7367 398.101C86.1586 394.394 86.8968 390.688 87.7406 386.981ZM84.893 402.594C88.3734 401.247 92.2756 400.573 95.6506 401.134C91.5374 406.975 87.6351 413.041 83.8383 418.77C83.9438 413.49 84.3656 407.986 84.893 402.594ZM133.197 391.586C125.92 398.551 116.428 404.055 107.252 409.783C99.131 414.726 91.221 419.444 84.9984 424.836C85.6312 423.712 86.264 422.252 87.3187 420.792C102.4 397.09 119.592 374.4 138.576 353.844C140.685 351.485 142.689 349.238 144.271 346.879C144.165 349.126 144.376 351.485 145.114 353.844C148.489 368.671 144.693 380.69 133.197 391.586ZM219.785 279.257C191.731 285.323 166.208 301.948 141.529 317.674C114.846 334.635 86.475 351.485 55.4678 353.507C73.3971 325.2 64.5379 285.997 78.4595 255.219C80.2524 251.624 82.0454 247.693 81.0962 243.874C80.0415 239.942 76.0338 237.696 72.5534 235.786C64.5379 231.63 56.9443 226.463 49.878 221.071C44.4992 217.027 33.0033 209.726 30.7885 203.211C46.925 200.29 61.6903 198.493 76.772 190.742C83.8383 187.148 90.5882 182.654 96.9162 177.6C100.08 175.016 103.033 172.32 105.986 169.512C107.568 167.827 114.107 162.884 114.213 160.413C113.896 164.906 114.213 169.063 114.846 173.443C105.037 178.835 97.338 187.148 88.3734 193.775C87.9515 194.112 88.2679 194.898 88.7952 194.674C98.0763 190.517 106.83 184.564 116.428 181.419C117.904 187.372 120.013 193.326 122.123 199.054C106.725 203.211 92.2756 211.074 77.6158 218.263C76.983 218.487 77.4048 219.386 77.9322 219.161C93.2248 213.994 108.728 208.153 124.759 206.468C126.341 210.961 128.029 215.454 129.4 220.06C116.322 224.778 103.877 231.405 91.6428 238.257C91.221 238.482 91.4319 239.38 91.9592 239.156C104.932 234.663 118.01 230.507 131.404 228.148C131.826 230.619 132.353 233.202 132.564 235.786C132.775 237.808 132.88 239.83 132.986 241.964L103.666 261.846C103.244 262.183 103.561 262.97 104.088 262.745L133.724 250.613C134.357 254.77 135.306 258.926 137.626 262.408C145.431 262.52 153.235 262.857 160.934 263.644L123.81 285.098C123.388 285.323 123.705 286.222 124.127 285.997L173.696 265.329C182.239 266.564 190.887 268.249 199.219 270.383C179.918 281.167 160.091 291.613 139.314 298.803C138.681 299.027 138.997 299.926 139.525 299.813C164.098 293.972 187.723 283.75 210.926 273.641C215.777 275.101 220.734 276.786 225.586 278.471C223.898 278.359 222 278.808 219.785 279.257ZM249.21 264.205C249.632 266.115 250.265 267.912 250.792 269.822C239.507 262.633 226.851 258.476 213.984 256.118C207.34 254.994 200.59 254.096 193.84 253.759C187.723 253.422 180.129 254.433 174.434 252.972C179.918 250.95 238.031 232.191 238.874 234.101C242.777 243.874 246.257 253.871 249.21 264.205ZM487.038 180.632C360.583 180.632 247.944 200.964 152.075 240.841L150.177 241.627L149.86 239.493C141.74 193.438 127.712 139.408 111.154 91.1063L110.521 89.1967L129.505 83.9172C249.527 51.4542 362.798 20.5637 487.038 20.5637C487.143 20.5637 487.248 20.5637 487.354 20.5637C611.277 20.5637 724.76 51.4541 844.675 84.1419L863.87 89.4213L863.237 91.3309C856.698 110.539 851.636 131.432 846.89 151.652C845.624 157.268 844.253 162.66 842.988 168.052C840.878 176.139 838.558 184.452 835.921 193.326C831.175 208.939 826.429 224.89 824.637 239.717L824.426 241.964L822.422 241.178C724.865 201.076 612.016 180.632 487.038 180.632ZM744.271 261.06C737.205 263.082 730.138 265.216 723.916 269.597C726.025 260.835 728.662 252.411 731.615 243.986C732.67 241.065 734.041 234.663 736.888 233.876C739.525 232.978 747.329 237.022 750.177 237.696C758.72 240.279 767.368 242.75 775.805 245.222C780.235 246.457 784.77 247.805 789.2 249.041C792.786 250.052 797.953 252.748 801.645 252.635C782.977 252.972 764.204 255.781 746.064 260.274C745.431 260.835 744.798 260.948 744.271 261.06ZM944.763 202.649C931.263 215.342 916.498 226.575 900.994 236.011C897.725 238.033 894.245 240.167 893.295 244.098C892.979 246.457 893.506 248.704 894.35 250.726C894.772 251.961 895.51 253.309 896.143 254.545C910.592 285.098 900.889 324.975 918.924 353.282C888.022 350.811 859.757 334.074 833.074 317.112C806.391 300.15 780.235 284.312 749.439 277.797C752.497 275.663 756.716 274.315 761.04 273.192C784.348 283.301 807.867 293.635 832.441 299.364C833.074 299.476 833.285 298.578 832.652 298.353C811.875 291.164 792.153 280.83 772.852 270.046C779.075 268.137 785.297 266.564 791.625 265.104C793.207 264.767 794.895 264.318 796.582 264.093L848.156 285.548C848.577 285.772 848.999 284.874 848.472 284.649L809.344 262.183C817.465 261.285 825.691 261.06 833.812 261.846C835.605 261.959 837.293 261.06 838.136 259.375C839.402 256.904 839.929 255.331 840.246 252.298L868.089 262.408C868.722 262.633 869.038 261.959 868.511 261.509L840.878 242.75C840.984 240.504 840.984 238.145 841.089 235.898C841.3 233.202 841.722 230.619 842.144 228.035C855.116 230.394 867.667 234.438 880.323 238.819C880.956 239.044 881.167 238.145 880.639 237.92C868.722 231.405 856.698 224.89 843.937 220.285C845.203 215.567 846.89 210.961 848.577 206.356C864.292 208.265 879.374 213.994 894.35 218.937C894.983 219.161 895.299 218.263 894.666 218.038C880.428 210.961 866.296 203.435 851.214 199.279C853.429 193.438 855.538 187.597 857.12 181.756C866.19 185.013 874.522 190.517 883.487 194.449C884.12 194.674 884.436 194 883.909 193.55C875.471 187.26 867.878 179.397 858.808 174.005C859.651 169.287 859.968 164.457 859.651 159.515C880.85 185.687 912.385 201.638 944.763 202.649ZM945.079 150.304C944.13 137.273 948.876 127.95 960.056 120.536C967.017 116.043 975.876 112.673 984.313 109.416C992.012 106.495 999.078 103.575 1005.09 99.9803C1004.35 101.104 1003.51 102.002 1002.56 103.125C986.422 120.761 968.915 137.049 950.142 151.315C948.244 152.775 946.24 154.572 944.552 156.257C945.185 154.46 945.29 152.55 945.079 150.304ZM977.669 159.402C971.024 164.008 963.747 165.019 955.943 162.323C952.146 161.312 948.243 160.975 944.658 161.874C946.24 159.065 949.193 156.482 952.357 154.235C953.517 153.449 954.677 152.55 955.943 151.539C962.798 156.145 971.024 158.728 978.934 158.504C978.723 158.728 978.196 159.178 977.669 159.402ZM983.575 154.684C975.243 156.032 966.278 153.786 959.001 149.405C961.954 147.046 964.696 144.687 967.544 142.216C972.395 146.147 978.723 148.057 986.317 147.945C987.372 147.945 988.11 147.832 988.954 147.832C987.372 150.191 985.368 152.438 983.575 154.684ZM991.485 143.901C982.731 145.137 975.559 143.789 970.181 140.082C973.239 137.61 976.087 134.915 978.723 132.331C984.313 134.69 989.481 135.926 994.121 135.589H995.598C994.543 138.284 993.278 141.205 991.485 143.901ZM997.707 131.657C993.278 132.556 987.899 131.657 981.887 129.41C984.524 126.827 987.372 124.131 990.219 121.323C992.645 122.446 995.704 123.008 998.657 122.895C999.5 122.895 1000.13 122.895 1000.98 122.783C999.922 125.928 998.973 128.849 997.707 131.657ZM1002.35 119.301C999.184 119.638 995.809 119.638 993.067 118.852C996.969 114.471 1001.29 110.315 1005.3 105.934C1004.46 109.978 1003.51 114.583 1002.35 119.301Z"/>
</mask>
<path d="M1012.16 88.4104L1009.94 90.4323C1008.57 91.7802 1006.88 92.9035 1005.09 94.1391C999.078 98.183 991.274 101.104 983.047 104.361C974.294 107.956 965.329 111.213 957.841 116.268C944.869 124.693 939.384 135.701 940.544 150.978C940.755 155.695 939.173 160.526 936.115 164.232C932.002 168.95 927.994 173.78 925.041 178.498C924.092 175.241 923.037 172.095 922.404 168.276C922.193 166.254 922.088 164.569 922.193 162.435C922.615 157.38 925.146 153.112 929.049 149.967C936.22 144.238 938.962 136.262 941.599 127.838C941.81 126.602 942.021 125.03 942.443 123.794C943.287 99.194 921.982 68.6405 906.162 55.6103L903.737 53.5884L903.842 56.7336C903.842 58.7555 904.053 60.7775 903.842 63.1364C903.209 70.6624 900.783 79.1994 898.252 87.961C895.616 97.6213 892.663 107.282 892.03 116.605C890.553 132.78 895.616 144.238 907.744 152.213C911.541 154.909 914.283 159.402 915.021 164.12C915.971 169.175 916.92 174.23 918.185 178.611C899.096 171.084 881.061 160.975 864.292 148.506C871.675 130.871 879.374 110.315 871.675 92.5665C864.714 76.1665 847.312 68.4158 831.281 62.3501C776.544 42.1308 720.224 26.6294 663.167 16.2952C605.899 5.73626 547.575 0.23214 489.463 0.00748246C431.351 -0.217175 373.344 4.61296 316.076 15.0596C258.913 25.5061 202.594 41.2322 148.384 62.687C139.103 66.2816 129.927 70.1007 120.752 74.0323C113.896 76.9528 104.932 78.5254 103.033 87.0624C98.4982 107.057 101.873 130.084 109.889 148.506C79.0923 172.657 41.968 187.597 4 190.967C20.5583 213.657 40.4915 233.427 62.6395 249.715C56.1006 283.076 49.5616 316.55 43.0227 349.912C42.6008 352.159 42.1789 354.405 42.8117 356.54C44.1828 361.145 49.7726 362.605 54.4131 362.83C67.8074 363.504 80.5688 360.808 92.9084 356.427C79.4087 378.781 75.9283 414.951 79.1978 436.293L79.936 440C80.5688 437.192 81.9399 434.721 83.7328 432.699C84.1547 432.025 84.893 431.575 85.6312 431.014C92.0647 425.173 100.397 420.005 109.256 414.389C118.748 408.548 128.662 402.594 136.15 395.181C149.65 382.712 153.763 368.559 149.755 351.372C148.595 346.879 148.911 342.723 150.599 338.455C154.712 331.94 158.825 325.312 162.833 318.797C166.313 316.775 169.688 314.978 173.169 313.181C198.375 300.15 225.691 291.726 253.534 288.356C257.858 287.907 262.71 287.233 265.663 283.75C269.143 279.594 268.3 272.967 266.823 267.463C263.237 254.208 256.909 241.852 248.683 231.18C405.406 192.539 570.251 192.427 726.974 230.956C718.642 241.852 712.314 254.433 708.307 267.912C707.041 272.293 705.986 277.348 708.201 281.279C710.732 285.772 716.322 287.008 721.068 287.682C758.614 293.972 795.211 307.227 828.433 326.885C858.702 344.745 890.553 368.671 924.513 361.145C927.677 360.471 931.158 359.011 932.423 355.866C933.162 353.731 932.74 351.485 932.318 349.463C925.779 316.213 919.346 282.739 912.807 249.49C924.197 240.841 934.955 231.18 945.079 221.071C954.255 211.972 963.009 202.312 971.13 192.202C957.525 190.293 944.025 187.148 930.947 182.767C932.845 179.397 935.271 175.915 938.013 172.32C939.173 171.084 940.544 169.737 942.126 168.726C946.029 166.367 951.091 165.805 955.626 167.265C964.063 169.961 971.763 167.602 979.673 164.682C980.938 164.008 982.204 163.334 983.258 162.772C1002.56 148.843 1012.79 112.449 1013 90.9939L1012.16 88.4104ZM909.959 147.832C899.623 140.98 895.405 131.208 896.565 117.279C897.303 108.517 900.045 99.0816 902.576 89.8706C904.897 81.446 907.111 73.6953 908.061 66.5062C908.483 67.6295 908.483 69.0898 908.904 70.4378C912.596 94.7008 914.283 119.413 913.967 143.901C913.861 146.484 913.967 149.068 914.178 151.539C912.912 150.079 911.541 148.843 909.959 147.832ZM914.389 88.1857C913.65 82.12 912.912 75.9419 911.963 69.8761C914.916 73.1336 917.553 76.8405 920.189 80.6597C918.818 83.5802 916.709 86.3885 914.389 88.1857ZM914.916 92.3419C917.131 90.8816 919.346 88.5227 921.033 85.9391C921.455 85.1528 921.877 84.4789 922.299 83.8049C924.092 86.5008 925.568 89.0843 926.834 92.1172C924.83 96.2734 921.139 100.767 915.76 104.361C915.549 100.43 915.338 96.1611 914.916 92.3419ZM927.888 97.0597C928.205 96.6104 928.31 96.0487 928.732 95.5994C930.103 98.4077 931.369 101.328 932.423 104.361C928.099 112.786 923.037 117.953 916.709 120.312C916.498 116.268 916.393 112.112 915.971 108.18C921.139 104.923 925.252 101.104 927.888 97.0597ZM916.709 123.794C922.615 121.884 927.888 117.616 932.318 111.101C933.056 110.315 933.373 109.641 933.9 108.63C934.849 111.55 935.482 114.695 935.482 117.728C931.58 125.479 924.724 131.994 916.92 135.589C916.92 131.657 916.814 127.613 916.709 123.794ZM916.92 143.676C916.92 142.104 917.025 140.756 916.92 139.071C924.197 136.15 931.052 130.421 935.904 123.569C935.693 124.243 935.798 124.805 935.798 125.254C935.06 133.567 931.369 140.419 925.041 145.586C921.877 147.945 919.557 151.202 918.185 154.909C917.236 151.989 916.92 147.832 916.92 143.676ZM92.6975 371.704C102.717 368.334 111.26 368.334 118.115 371.816C115.162 375.299 112.209 379.005 109.361 382.6C102.4 381.027 96.0724 380.915 90.6936 381.926C90.0608 382.038 89.428 382.151 88.9007 382.263C89.9554 378.781 91.1155 375.074 92.6975 371.704ZM143.005 340.926C141.529 344.52 138.576 348.227 135.412 351.485C134.251 352.72 133.091 354.068 131.931 355.304C123.388 351.372 113.264 350.361 104.193 352.159C104.615 351.485 105.143 350.923 105.459 350.923L105.564 350.811C110.838 348.452 115.9 345.756 120.963 342.948C123.916 342.498 126.869 342.498 130.033 342.835C134.568 343.285 138.892 342.723 143.005 340.926ZM132.986 336.096C137.31 333.512 141.74 330.929 145.958 328.345C144.904 330.03 143.849 331.715 142.794 333.4C139.947 335.422 136.572 336.32 132.986 336.096ZM129.084 358.562C126.13 361.931 123.283 365.526 120.33 368.783C113.896 365.414 106.303 364.29 97.549 366.312C96.7052 366.312 95.4396 366.537 94.385 366.762C95.756 363.279 97.7599 360.246 99.4474 357.663C108.939 354.293 119.908 354.63 129.084 358.562ZM87.7406 386.981C92.6975 384.959 99.131 384.734 106.514 386.082C103.772 389.789 101.135 393.608 98.3927 397.315C95.2287 396.304 91.6428 396.529 88.2679 397.203C87.3187 397.54 86.6859 397.652 85.7367 398.101C86.1586 394.394 86.8968 390.688 87.7406 386.981ZM84.893 402.594C88.3734 401.247 92.2756 400.573 95.6506 401.134C91.5374 406.975 87.6351 413.041 83.8383 418.77C83.9438 413.49 84.3656 407.986 84.893 402.594ZM133.197 391.586C125.92 398.551 116.428 404.055 107.252 409.783C99.131 414.726 91.221 419.444 84.9984 424.836C85.6312 423.712 86.264 422.252 87.3187 420.792C102.4 397.09 119.592 374.4 138.576 353.844C140.685 351.485 142.689 349.238 144.271 346.879C144.165 349.126 144.376 351.485 145.114 353.844C148.489 368.671 144.693 380.69 133.197 391.586ZM219.785 279.257C191.731 285.323 166.208 301.948 141.529 317.674C114.846 334.635 86.475 351.485 55.4678 353.507C73.3971 325.2 64.5379 285.997 78.4595 255.219C80.2524 251.624 82.0454 247.693 81.0962 243.874C80.0415 239.942 76.0338 237.696 72.5534 235.786C64.5379 231.63 56.9443 226.463 49.878 221.071C44.4992 217.027 33.0033 209.726 30.7885 203.211C46.925 200.29 61.6903 198.493 76.772 190.742C83.8383 187.148 90.5882 182.654 96.9162 177.6C100.08 175.016 103.033 172.32 105.986 169.512C107.568 167.827 114.107 162.884 114.213 160.413C113.896 164.906 114.213 169.063 114.846 173.443C105.037 178.835 97.338 187.148 88.3734 193.775C87.9515 194.112 88.2679 194.898 88.7952 194.674C98.0763 190.517 106.83 184.564 116.428 181.419C117.904 187.372 120.013 193.326 122.123 199.054C106.725 203.211 92.2756 211.074 77.6158 218.263C76.983 218.487 77.4048 219.386 77.9322 219.161C93.2248 213.994 108.728 208.153 124.759 206.468C126.341 210.961 128.029 215.454 129.4 220.06C116.322 224.778 103.877 231.405 91.6428 238.257C91.221 238.482 91.4319 239.38 91.9592 239.156C104.932 234.663 118.01 230.507 131.404 228.148C131.826 230.619 132.353 233.202 132.564 235.786C132.775 237.808 132.88 239.83 132.986 241.964L103.666 261.846C103.244 262.183 103.561 262.97 104.088 262.745L133.724 250.613C134.357 254.77 135.306 258.926 137.626 262.408C145.431 262.52 153.235 262.857 160.934 263.644L123.81 285.098C123.388 285.323 123.705 286.222 124.127 285.997L173.696 265.329C182.239 266.564 190.887 268.249 199.219 270.383C179.918 281.167 160.091 291.613 139.314 298.803C138.681 299.027 138.997 299.926 139.525 299.813C164.098 293.972 187.723 283.75 210.926 273.641C215.777 275.101 220.734 276.786 225.586 278.471C223.898 278.359 222 278.808 219.785 279.257ZM249.21 264.205C249.632 266.115 250.265 267.912 250.792 269.822C239.507 262.633 226.851 258.476 213.984 256.118C207.34 254.994 200.59 254.096 193.84 253.759C187.723 253.422 180.129 254.433 174.434 252.972C179.918 250.95 238.031 232.191 238.874 234.101C242.777 243.874 246.257 253.871 249.21 264.205ZM487.038 180.632C360.583 180.632 247.944 200.964 152.075 240.841L150.177 241.627L149.86 239.493C141.74 193.438 127.712 139.408 111.154 91.1063L110.521 89.1967L129.505 83.9172C249.527 51.4542 362.798 20.5637 487.038 20.5637C487.143 20.5637 487.248 20.5637 487.354 20.5637C611.277 20.5637 724.76 51.4541 844.675 84.1419L863.87 89.4213L863.237 91.3309C856.698 110.539 851.636 131.432 846.89 151.652C845.624 157.268 844.253 162.66 842.988 168.052C840.878 176.139 838.558 184.452 835.921 193.326C831.175 208.939 826.429 224.89 824.637 239.717L824.426 241.964L822.422 241.178C724.865 201.076 612.016 180.632 487.038 180.632ZM744.271 261.06C737.205 263.082 730.138 265.216 723.916 269.597C726.025 260.835 728.662 252.411 731.615 243.986C732.67 241.065 734.041 234.663 736.888 233.876C739.525 232.978 747.329 237.022 750.177 237.696C758.72 240.279 767.368 242.75 775.805 245.222C780.235 246.457 784.77 247.805 789.2 249.041C792.786 250.052 797.953 252.748 801.645 252.635C782.977 252.972 764.204 255.781 746.064 260.274C745.431 260.835 744.798 260.948 744.271 261.06ZM944.763 202.649C931.263 215.342 916.498 226.575 900.994 236.011C897.725 238.033 894.245 240.167 893.295 244.098C892.979 246.457 893.506 248.704 894.35 250.726C894.772 251.961 895.51 253.309 896.143 254.545C910.592 285.098 900.889 324.975 918.924 353.282C888.022 350.811 859.757 334.074 833.074 317.112C806.391 300.15 780.235 284.312 749.439 277.797C752.497 275.663 756.716 274.315 761.04 273.192C784.348 283.301 807.867 293.635 832.441 299.364C833.074 299.476 833.285 298.578 832.652 298.353C811.875 291.164 792.153 280.83 772.852 270.046C779.075 268.137 785.297 266.564 791.625 265.104C793.207 264.767 794.895 264.318 796.582 264.093L848.156 285.548C848.577 285.772 848.999 284.874 848.472 284.649L809.344 262.183C817.465 261.285 825.691 261.06 833.812 261.846C835.605 261.959 837.293 261.06 838.136 259.375C839.402 256.904 839.929 255.331 840.246 252.298L868.089 262.408C868.722 262.633 869.038 261.959 868.511 261.509L840.878 242.75C840.984 240.504 840.984 238.145 841.089 235.898C841.3 233.202 841.722 230.619 842.144 228.035C855.116 230.394 867.667 234.438 880.323 238.819C880.956 239.044 881.167 238.145 880.639 237.92C868.722 231.405 856.698 224.89 843.937 220.285C845.203 215.567 846.89 210.961 848.577 206.356C864.292 208.265 879.374 213.994 894.35 218.937C894.983 219.161 895.299 218.263 894.666 218.038C880.428 210.961 866.296 203.435 851.214 199.279C853.429 193.438 855.538 187.597 857.12 181.756C866.19 185.013 874.522 190.517 883.487 194.449C884.12 194.674 884.436 194 883.909 193.55C875.471 187.26 867.878 179.397 858.808 174.005C859.651 169.287 859.968 164.457 859.651 159.515C880.85 185.687 912.385 201.638 944.763 202.649ZM945.079 150.304C944.13 137.273 948.876 127.95 960.056 120.536C967.017 116.043 975.876 112.673 984.313 109.416C992.012 106.495 999.078 103.575 1005.09 99.9803C1004.35 101.104 1003.51 102.002 1002.56 103.125C986.422 120.761 968.915 137.049 950.142 151.315C948.244 152.775 946.24 154.572 944.552 156.257C945.185 154.46 945.29 152.55 945.079 150.304ZM977.669 159.402C971.024 164.008 963.747 165.019 955.943 162.323C952.146 161.312 948.243 160.975 944.658 161.874C946.24 159.065 949.193 156.482 952.357 154.235C953.517 153.449 954.677 152.55 955.943 151.539C962.798 156.145 971.024 158.728 978.934 158.504C978.723 158.728 978.196 159.178 977.669 159.402ZM983.575 154.684C975.243 156.032 966.278 153.786 959.001 149.405C961.954 147.046 964.696 144.687 967.544 142.216C972.395 146.147 978.723 148.057 986.317 147.945C987.372 147.945 988.11 147.832 988.954 147.832C987.372 150.191 985.368 152.438 983.575 154.684ZM991.485 143.901C982.731 145.137 975.559 143.789 970.181 140.082C973.239 137.61 976.087 134.915 978.723 132.331C984.313 134.69 989.481 135.926 994.121 135.589H995.598C994.543 138.284 993.278 141.205 991.485 143.901ZM997.707 131.657C993.278 132.556 987.899 131.657 981.887 129.41C984.524 126.827 987.372 124.131 990.219 121.323C992.645 122.446 995.704 123.008 998.657 122.895C999.5 122.895 1000.13 122.895 1000.98 122.783C999.922 125.928 998.973 128.849 997.707 131.657ZM1002.35 119.301C999.184 119.638 995.809 119.638 993.067 118.852C996.969 114.471 1001.29 110.315 1005.3 105.934C1004.46 109.978 1003.51 114.583 1002.35 119.301Z" fill="#CACC6B"/>
<path d="M1012.16 88.4104L1009.94 90.4323C1008.57 91.7802 1006.88 92.9035 1005.09 94.1391C999.078 98.183 991.274 101.104 983.047 104.361C974.294 107.956 965.329 111.213 957.841 116.268C944.869 124.693 939.384 135.701 940.544 150.978C940.755 155.695 939.173 160.526 936.115 164.232C932.002 168.95 927.994 173.78 925.041 178.498C924.092 175.241 923.037 172.095 922.404 168.276C922.193 166.254 922.088 164.569 922.193 162.435C922.615 157.38 925.146 153.112 929.049 149.967C936.22 144.238 938.962 136.262 941.599 127.838C941.81 126.602 942.021 125.03 942.443 123.794C943.287 99.194 921.982 68.6405 906.162 55.6103L903.737 53.5884L903.842 56.7336C903.842 58.7555 904.053 60.7775 903.842 63.1364C903.209 70.6624 900.783 79.1994 898.252 87.961C895.616 97.6213 892.663 107.282 892.03 116.605C890.553 132.78 895.616 144.238 907.744 152.213C911.541 154.909 914.283 159.402 915.021 164.12C915.971 169.175 916.92 174.23 918.185 178.611C899.096 171.084 881.061 160.975 864.292 148.506C871.675 130.871 879.374 110.315 871.675 92.5665C864.714 76.1665 847.312 68.4158 831.281 62.3501C776.544 42.1308 720.224 26.6294 663.167 16.2952C605.899 5.73626 547.575 0.23214 489.463 0.00748246C431.351 -0.217175 373.344 4.61296 316.076 15.0596C258.913 25.5061 202.594 41.2322 148.384 62.687C139.103 66.2816 129.927 70.1007 120.752 74.0323C113.896 76.9528 104.932 78.5254 103.033 87.0624C98.4982 107.057 101.873 130.084 109.889 148.506C79.0923 172.657 41.968 187.597 4 190.967C20.5583 213.657 40.4915 233.427 62.6395 249.715C56.1006 283.076 49.5616 316.55 43.0227 349.912C42.6008 352.159 42.1789 354.405 42.8117 356.54C44.1828 361.145 49.7726 362.605 54.4131 362.83C67.8074 363.504 80.5688 360.808 92.9084 356.427C79.4087 378.781 75.9283 414.951 79.1978 436.293L79.936 440C80.5688 437.192 81.9399 434.721 83.7328 432.699C84.1547 432.025 84.893 431.575 85.6312 431.014C92.0647 425.173 100.397 420.005 109.256 414.389C118.748 408.548 128.662 402.594 136.15 395.181C149.65 382.712 153.763 368.559 149.755 351.372C148.595 346.879 148.911 342.723 150.599 338.455C154.712 331.94 158.825 325.312 162.833 318.797C166.313 316.775 169.688 314.978 173.169 313.181C198.375 300.15 225.691 291.726 253.534 288.356C257.858 287.907 262.71 287.233 265.663 283.75C269.143 279.594 268.3 272.967 266.823 267.463C263.237 254.208 256.909 241.852 248.683 231.18C405.406 192.539 570.251 192.427 726.974 230.956C718.642 241.852 712.314 254.433 708.307 267.912C707.041 272.293 705.986 277.348 708.201 281.279C710.732 285.772 716.322 287.008 721.068 287.682C758.614 293.972 795.211 307.227 828.433 326.885C858.702 344.745 890.553 368.671 924.513 361.145C927.677 360.471 931.158 359.011 932.423 355.866C933.162 353.731 932.74 351.485 932.318 349.463C925.779 316.213 919.346 282.739 912.807 249.49C924.197 240.841 934.955 231.18 945.079 221.071C954.255 211.972 963.009 202.312 971.13 192.202C957.525 190.293 944.025 187.148 930.947 182.767C932.845 179.397 935.271 175.915 938.013 172.32C939.173 171.084 940.544 169.737 942.126 168.726C946.029 166.367 951.091 165.805 955.626 167.265C964.063 169.961 971.763 167.602 979.673 164.682C980.938 164.008 982.204 163.334 983.258 162.772C1002.56 148.843 1012.79 112.449 1013 90.9939L1012.16 88.4104ZM909.959 147.832C899.623 140.98 895.405 131.208 896.565 117.279C897.303 108.517 900.045 99.0816 902.576 89.8706C904.897 81.446 907.111 73.6953 908.061 66.5062C908.483 67.6295 908.483 69.0898 908.904 70.4378C912.596 94.7008 914.283 119.413 913.967 143.901C913.861 146.484 913.967 149.068 914.178 151.539C912.912 150.079 911.541 148.843 909.959 147.832ZM914.389 88.1857C913.65 82.12 912.912 75.9419 911.963 69.8761C914.916 73.1336 917.553 76.8405 920.189 80.6597C918.818 83.5802 916.709 86.3885 914.389 88.1857ZM914.916 92.3419C917.131 90.8816 919.346 88.5227 921.033 85.9391C921.455 85.1528 921.877 84.4789 922.299 83.8049C924.092 86.5008 925.568 89.0843 926.834 92.1172C924.83 96.2734 921.139 100.767 915.76 104.361C915.549 100.43 915.338 96.1611 914.916 92.3419ZM927.888 97.0597C928.205 96.6104 928.31 96.0487 928.732 95.5994C930.103 98.4077 931.369 101.328 932.423 104.361C928.099 112.786 923.037 117.953 916.709 120.312C916.498 116.268 916.393 112.112 915.971 108.18C921.139 104.923 925.252 101.104 927.888 97.0597ZM916.709 123.794C922.615 121.884 927.888 117.616 932.318 111.101C933.056 110.315 933.373 109.641 933.9 108.63C934.849 111.55 935.482 114.695 935.482 117.728C931.58 125.479 924.724 131.994 916.92 135.589C916.92 131.657 916.814 127.613 916.709 123.794ZM916.92 143.676C916.92 142.104 917.025 140.756 916.92 139.071C924.197 136.15 931.052 130.421 935.904 123.569C935.693 124.243 935.798 124.805 935.798 125.254C935.06 133.567 931.369 140.419 925.041 145.586C921.877 147.945 919.557 151.202 918.185 154.909C917.236 151.989 916.92 147.832 916.92 143.676ZM92.6975 371.704C102.717 368.334 111.26 368.334 118.115 371.816C115.162 375.299 112.209 379.005 109.361 382.6C102.4 381.027 96.0724 380.915 90.6936 381.926C90.0608 382.038 89.428 382.151 88.9007 382.263C89.9554 378.781 91.1155 375.074 92.6975 371.704ZM143.005 340.926C141.529 344.52 138.576 348.227 135.412 351.485C134.251 352.72 133.091 354.068 131.931 355.304C123.388 351.372 113.264 350.361 104.193 352.159C104.615 351.485 105.143 350.923 105.459 350.923L105.564 350.811C110.838 348.452 115.9 345.756 120.963 342.948C123.916 342.498 126.869 342.498 130.033 342.835C134.568 343.285 138.892 342.723 143.005 340.926ZM132.986 336.096C137.31 333.512 141.74 330.929 145.958 328.345C144.904 330.03 143.849 331.715 142.794 333.4C139.947 335.422 136.572 336.32 132.986 336.096ZM129.084 358.562C126.13 361.931 123.283 365.526 120.33 368.783C113.896 365.414 106.303 364.29 97.549 366.312C96.7052 366.312 95.4396 366.537 94.385 366.762C95.756 363.279 97.7599 360.246 99.4474 357.663C108.939 354.293 119.908 354.63 129.084 358.562ZM87.7406 386.981C92.6975 384.959 99.131 384.734 106.514 386.082C103.772 389.789 101.135 393.608 98.3927 397.315C95.2287 396.304 91.6428 396.529 88.2679 397.203C87.3187 397.54 86.6859 397.652 85.7367 398.101C86.1586 394.394 86.8968 390.688 87.7406 386.981ZM84.893 402.594C88.3734 401.247 92.2756 400.573 95.6506 401.134C91.5374 406.975 87.6351 413.041 83.8383 418.77C83.9438 413.49 84.3656 407.986 84.893 402.594ZM133.197 391.586C125.92 398.551 116.428 404.055 107.252 409.783C99.131 414.726 91.221 419.444 84.9984 424.836C85.6312 423.712 86.264 422.252 87.3187 420.792C102.4 397.09 119.592 374.4 138.576 353.844C140.685 351.485 142.689 349.238 144.271 346.879C144.165 349.126 144.376 351.485 145.114 353.844C148.489 368.671 144.693 380.69 133.197 391.586ZM219.785 279.257C191.731 285.323 166.208 301.948 141.529 317.674C114.846 334.635 86.475 351.485 55.4678 353.507C73.3971 325.2 64.5379 285.997 78.4595 255.219C80.2524 251.624 82.0454 247.693 81.0962 243.874C80.0415 239.942 76.0338 237.696 72.5534 235.786C64.5379 231.63 56.9443 226.463 49.878 221.071C44.4992 217.027 33.0033 209.726 30.7885 203.211C46.925 200.29 61.6903 198.493 76.772 190.742C83.8383 187.148 90.5882 182.654 96.9162 177.6C100.08 175.016 103.033 172.32 105.986 169.512C107.568 167.827 114.107 162.884 114.213 160.413C113.896 164.906 114.213 169.063 114.846 173.443C105.037 178.835 97.338 187.148 88.3734 193.775C87.9515 194.112 88.2679 194.898 88.7952 194.674C98.0763 190.517 106.83 184.564 116.428 181.419C117.904 187.372 120.013 193.326 122.123 199.054C106.725 203.211 92.2756 211.074 77.6158 218.263C76.983 218.487 77.4048 219.386 77.9322 219.161C93.2248 213.994 108.728 208.153 124.759 206.468C126.341 210.961 128.029 215.454 129.4 220.06C116.322 224.778 103.877 231.405 91.6428 238.257C91.221 238.482 91.4319 239.38 91.9592 239.156C104.932 234.663 118.01 230.507 131.404 228.148C131.826 230.619 132.353 233.202 132.564 235.786C132.775 237.808 132.88 239.83 132.986 241.964L103.666 261.846C103.244 262.183 103.561 262.97 104.088 262.745L133.724 250.613C134.357 254.77 135.306 258.926 137.626 262.408C145.431 262.52 153.235 262.857 160.934 263.644L123.81 285.098C123.388 285.323 123.705 286.222 124.127 285.997L173.696 265.329C182.239 266.564 190.887 268.249 199.219 270.383C179.918 281.167 160.091 291.613 139.314 298.803C138.681 299.027 138.997 299.926 139.525 299.813C164.098 293.972 187.723 283.75 210.926 273.641C215.777 275.101 220.734 276.786 225.586 278.471C223.898 278.359 222 278.808 219.785 279.257ZM249.21 264.205C249.632 266.115 250.265 267.912 250.792 269.822C239.507 262.633 226.851 258.476 213.984 256.118C207.34 254.994 200.59 254.096 193.84 253.759C187.723 253.422 180.129 254.433 174.434 252.972C179.918 250.95 238.031 232.191 238.874 234.101C242.777 243.874 246.257 253.871 249.21 264.205ZM487.038 180.632C360.583 180.632 247.944 200.964 152.075 240.841L150.177 241.627L149.86 239.493C141.74 193.438 127.712 139.408 111.154 91.1063L110.521 89.1967L129.505 83.9172C249.527 51.4542 362.798 20.5637 487.038 20.5637C487.143 20.5637 487.248 20.5637 487.354 20.5637C611.277 20.5637 724.76 51.4541 844.675 84.1419L863.87 89.4213L863.237 91.3309C856.698 110.539 851.636 131.432 846.89 151.652C845.624 157.268 844.253 162.66 842.988 168.052C840.878 176.139 838.558 184.452 835.921 193.326C831.175 208.939 826.429 224.89 824.637 239.717L824.426 241.964L822.422 241.178C724.865 201.076 612.016 180.632 487.038 180.632ZM744.271 261.06C737.205 263.082 730.138 265.216 723.916 269.597C726.025 260.835 728.662 252.411 731.615 243.986C732.67 241.065 734.041 234.663 736.888 233.876C739.525 232.978 747.329 237.022 750.177 237.696C758.72 240.279 767.368 242.75 775.805 245.222C780.235 246.457 784.77 247.805 789.2 249.041C792.786 250.052 797.953 252.748 801.645 252.635C782.977 252.972 764.204 255.781 746.064 260.274C745.431 260.835 744.798 260.948 744.271 261.06ZM944.763 202.649C931.263 215.342 916.498 226.575 900.994 236.011C897.725 238.033 894.245 240.167 893.295 244.098C892.979 246.457 893.506 248.704 894.35 250.726C894.772 251.961 895.51 253.309 896.143 254.545C910.592 285.098 900.889 324.975 918.924 353.282C888.022 350.811 859.757 334.074 833.074 317.112C806.391 300.15 780.235 284.312 749.439 277.797C752.497 275.663 756.716 274.315 761.04 273.192C784.348 283.301 807.867 293.635 832.441 299.364C833.074 299.476 833.285 298.578 832.652 298.353C811.875 291.164 792.153 280.83 772.852 270.046C779.075 268.137 785.297 266.564 791.625 265.104C793.207 264.767 794.895 264.318 796.582 264.093L848.156 285.548C848.577 285.772 848.999 284.874 848.472 284.649L809.344 262.183C817.465 261.285 825.691 261.06 833.812 261.846C835.605 261.959 837.293 261.06 838.136 259.375C839.402 256.904 839.929 255.331 840.246 252.298L868.089 262.408C868.722 262.633 869.038 261.959 868.511 261.509L840.878 242.75C840.984 240.504 840.984 238.145 841.089 235.898C841.3 233.202 841.722 230.619 842.144 228.035C855.116 230.394 867.667 234.438 880.323 238.819C880.956 239.044 881.167 238.145 880.639 237.92C868.722 231.405 856.698 224.89 843.937 220.285C845.203 215.567 846.89 210.961 848.577 206.356C864.292 208.265 879.374 213.994 894.35 218.937C894.983 219.161 895.299 218.263 894.666 218.038C880.428 210.961 866.296 203.435 851.214 199.279C853.429 193.438 855.538 187.597 857.12 181.756C866.19 185.013 874.522 190.517 883.487 194.449C884.12 194.674 884.436 194 883.909 193.55C875.471 187.26 867.878 179.397 858.808 174.005C859.651 169.287 859.968 164.457 859.651 159.515C880.85 185.687 912.385 201.638 944.763 202.649ZM945.079 150.304C944.13 137.273 948.876 127.95 960.056 120.536C967.017 116.043 975.876 112.673 984.313 109.416C992.012 106.495 999.078 103.575 1005.09 99.9803C1004.35 101.104 1003.51 102.002 1002.56 103.125C986.422 120.761 968.915 137.049 950.142 151.315C948.244 152.775 946.24 154.572 944.552 156.257C945.185 154.46 945.29 152.55 945.079 150.304ZM977.669 159.402C971.024 164.008 963.747 165.019 955.943 162.323C952.146 161.312 948.243 160.975 944.658 161.874C946.24 159.065 949.193 156.482 952.357 154.235C953.517 153.449 954.677 152.55 955.943 151.539C962.798 156.145 971.024 158.728 978.934 158.504C978.723 158.728 978.196 159.178 977.669 159.402ZM983.575 154.684C975.243 156.032 966.278 153.786 959.001 149.405C961.954 147.046 964.696 144.687 967.544 142.216C972.395 146.147 978.723 148.057 986.317 147.945C987.372 147.945 988.11 147.832 988.954 147.832C987.372 150.191 985.368 152.438 983.575 154.684ZM991.485 143.901C982.731 145.137 975.559 143.789 970.181 140.082C973.239 137.61 976.087 134.915 978.723 132.331C984.313 134.69 989.481 135.926 994.121 135.589H995.598C994.543 138.284 993.278 141.205 991.485 143.901ZM997.707 131.657C993.278 132.556 987.899 131.657 981.887 129.41C984.524 126.827 987.372 124.131 990.219 121.323C992.645 122.446 995.704 123.008 998.657 122.895C999.5 122.895 1000.13 122.895 1000.98 122.783C999.922 125.928 998.973 128.849 997.707 131.657ZM1002.35 119.301C999.184 119.638 995.809 119.638 993.067 118.852C996.969 114.471 1001.29 110.315 1005.3 105.934C1004.46 109.978 1003.51 114.583 1002.35 119.301Z" fill="#CACC6B" fill-opacity="0.2"/>
<path d="M1012.16 88.4104L1009.94 90.4323C1008.57 91.7802 1006.88 92.9035 1005.09 94.1391C999.078 98.183 991.274 101.104 983.047 104.361C974.294 107.956 965.329 111.213 957.841 116.268C944.869 124.693 939.384 135.701 940.544 150.978C940.755 155.695 939.173 160.526 936.115 164.232C932.002 168.95 927.994 173.78 925.041 178.498C924.092 175.241 923.037 172.095 922.404 168.276C922.193 166.254 922.088 164.569 922.193 162.435C922.615 157.38 925.146 153.112 929.049 149.967C936.22 144.238 938.962 136.262 941.599 127.838C941.81 126.602 942.021 125.03 942.443 123.794C943.287 99.194 921.982 68.6405 906.162 55.6103L903.737 53.5884L903.842 56.7336C903.842 58.7555 904.053 60.7775 903.842 63.1364C903.209 70.6624 900.783 79.1994 898.252 87.961C895.616 97.6213 892.663 107.282 892.03 116.605C890.553 132.78 895.616 144.238 907.744 152.213C911.541 154.909 914.283 159.402 915.021 164.12C915.971 169.175 916.92 174.23 918.185 178.611C899.096 171.084 881.061 160.975 864.292 148.506C871.675 130.871 879.374 110.315 871.675 92.5665C864.714 76.1665 847.312 68.4158 831.281 62.3501C776.544 42.1308 720.224 26.6294 663.167 16.2952C605.899 5.73626 547.575 0.23214 489.463 0.00748246C431.351 -0.217175 373.344 4.61296 316.076 15.0596C258.913 25.5061 202.594 41.2322 148.384 62.687C139.103 66.2816 129.927 70.1007 120.752 74.0323C113.896 76.9528 104.932 78.5254 103.033 87.0624C98.4982 107.057 101.873 130.084 109.889 148.506C79.0923 172.657 41.968 187.597 4 190.967C20.5583 213.657 40.4915 233.427 62.6395 249.715C56.1006 283.076 49.5616 316.55 43.0227 349.912C42.6008 352.159 42.1789 354.405 42.8117 356.54C44.1828 361.145 49.7726 362.605 54.4131 362.83C67.8074 363.504 80.5688 360.808 92.9084 356.427C79.4087 378.781 75.9283 414.951 79.1978 436.293L79.936 440C80.5688 437.192 81.9399 434.721 83.7328 432.699C84.1547 432.025 84.893 431.575 85.6312 431.014C92.0647 425.173 100.397 420.005 109.256 414.389C118.748 408.548 128.662 402.594 136.15 395.181C149.65 382.712 153.763 368.559 149.755 351.372C148.595 346.879 148.911 342.723 150.599 338.455C154.712 331.94 158.825 325.312 162.833 318.797C166.313 316.775 169.688 314.978 173.169 313.181C198.375 300.15 225.691 291.726 253.534 288.356C257.858 287.907 262.71 287.233 265.663 283.75C269.143 279.594 268.3 272.967 266.823 267.463C263.237 254.208 256.909 241.852 248.683 231.18C405.406 192.539 570.251 192.427 726.974 230.956C718.642 241.852 712.314 254.433 708.307 267.912C707.041 272.293 705.986 277.348 708.201 281.279C710.732 285.772 716.322 287.008 721.068 287.682C758.614 293.972 795.211 307.227 828.433 326.885C858.702 344.745 890.553 368.671 924.513 361.145C927.677 360.471 931.158 359.011 932.423 355.866C933.162 353.731 932.74 351.485 932.318 349.463C925.779 316.213 919.346 282.739 912.807 249.49C924.197 240.841 934.955 231.18 945.079 221.071C954.255 211.972 963.009 202.312 971.13 192.202C957.525 190.293 944.025 187.148 930.947 182.767C932.845 179.397 935.271 175.915 938.013 172.32C939.173 171.084 940.544 169.737 942.126 168.726C946.029 166.367 951.091 165.805 955.626 167.265C964.063 169.961 971.763 167.602 979.673 164.682C980.938 164.008 982.204 163.334 983.258 162.772C1002.56 148.843 1012.79 112.449 1013 90.9939L1012.16 88.4104ZM909.959 147.832C899.623 140.98 895.405 131.208 896.565 117.279C897.303 108.517 900.045 99.0816 902.576 89.8706C904.897 81.446 907.111 73.6953 908.061 66.5062C908.483 67.6295 908.483 69.0898 908.904 70.4378C912.596 94.7008 914.283 119.413 913.967 143.901C913.861 146.484 913.967 149.068 914.178 151.539C912.912 150.079 911.541 148.843 909.959 147.832ZM914.389 88.1857C913.65 82.12 912.912 75.9419 911.963 69.8761C914.916 73.1336 917.553 76.8405 920.189 80.6597C918.818 83.5802 916.709 86.3885 914.389 88.1857ZM914.916 92.3419C917.131 90.8816 919.346 88.5227 921.033 85.9391C921.455 85.1528 921.877 84.4789 922.299 83.8049C924.092 86.5008 925.568 89.0843 926.834 92.1172C924.83 96.2734 921.139 100.767 915.76 104.361C915.549 100.43 915.338 96.1611 914.916 92.3419ZM927.888 97.0597C928.205 96.6104 928.31 96.0487 928.732 95.5994C930.103 98.4077 931.369 101.328 932.423 104.361C928.099 112.786 923.037 117.953 916.709 120.312C916.498 116.268 916.393 112.112 915.971 108.18C921.139 104.923 925.252 101.104 927.888 97.0597ZM916.709 123.794C922.615 121.884 927.888 117.616 932.318 111.101C933.056 110.315 933.373 109.641 933.9 108.63C934.849 111.55 935.482 114.695 935.482 117.728C931.58 125.479 924.724 131.994 916.92 135.589C916.92 131.657 916.814 127.613 916.709 123.794ZM916.92 143.676C916.92 142.104 917.025 140.756 916.92 139.071C924.197 136.15 931.052 130.421 935.904 123.569C935.693 124.243 935.798 124.805 935.798 125.254C935.06 133.567 931.369 140.419 925.041 145.586C921.877 147.945 919.557 151.202 918.185 154.909C917.236 151.989 916.92 147.832 916.92 143.676ZM92.6975 371.704C102.717 368.334 111.26 368.334 118.115 371.816C115.162 375.299 112.209 379.005 109.361 382.6C102.4 381.027 96.0724 380.915 90.6936 381.926C90.0608 382.038 89.428 382.151 88.9007 382.263C89.9554 378.781 91.1155 375.074 92.6975 371.704ZM143.005 340.926C141.529 344.52 138.576 348.227 135.412 351.485C134.251 352.72 133.091 354.068 131.931 355.304C123.388 351.372 113.264 350.361 104.193 352.159C104.615 351.485 105.143 350.923 105.459 350.923L105.564 350.811C110.838 348.452 115.9 345.756 120.963 342.948C123.916 342.498 126.869 342.498 130.033 342.835C134.568 343.285 138.892 342.723 143.005 340.926ZM132.986 336.096C137.31 333.512 141.74 330.929 145.958 328.345C144.904 330.03 143.849 331.715 142.794 333.4C139.947 335.422 136.572 336.32 132.986 336.096ZM129.084 358.562C126.13 361.931 123.283 365.526 120.33 368.783C113.896 365.414 106.303 364.29 97.549 366.312C96.7052 366.312 95.4396 366.537 94.385 366.762C95.756 363.279 97.7599 360.246 99.4474 357.663C108.939 354.293 119.908 354.63 129.084 358.562ZM87.7406 386.981C92.6975 384.959 99.131 384.734 106.514 386.082C103.772 389.789 101.135 393.608 98.3927 397.315C95.2287 396.304 91.6428 396.529 88.2679 397.203C87.3187 397.54 86.6859 397.652 85.7367 398.101C86.1586 394.394 86.8968 390.688 87.7406 386.981ZM84.893 402.594C88.3734 401.247 92.2756 400.573 95.6506 401.134C91.5374 406.975 87.6351 413.041 83.8383 418.77C83.9438 413.49 84.3656 407.986 84.893 402.594ZM133.197 391.586C125.92 398.551 116.428 404.055 107.252 409.783C99.131 414.726 91.221 419.444 84.9984 424.836C85.6312 423.712 86.264 422.252 87.3187 420.792C102.4 397.09 119.592 374.4 138.576 353.844C140.685 351.485 142.689 349.238 144.271 346.879C144.165 349.126 144.376 351.485 145.114 353.844C148.489 368.671 144.693 380.69 133.197 391.586ZM219.785 279.257C191.731 285.323 166.208 301.948 141.529 317.674C114.846 334.635 86.475 351.485 55.4678 353.507C73.3971 325.2 64.5379 285.997 78.4595 255.219C80.2524 251.624 82.0454 247.693 81.0962 243.874C80.0415 239.942 76.0338 237.696 72.5534 235.786C64.5379 231.63 56.9443 226.463 49.878 221.071C44.4992 217.027 33.0033 209.726 30.7885 203.211C46.925 200.29 61.6903 198.493 76.772 190.742C83.8383 187.148 90.5882 182.654 96.9162 177.6C100.08 175.016 103.033 172.32 105.986 169.512C107.568 167.827 114.107 162.884 114.213 160.413C113.896 164.906 114.213 169.063 114.846 173.443C105.037 178.835 97.338 187.148 88.3734 193.775C87.9515 194.112 88.2679 194.898 88.7952 194.674C98.0763 190.517 106.83 184.564 116.428 181.419C117.904 187.372 120.013 193.326 122.123 199.054C106.725 203.211 92.2756 211.074 77.6158 218.263C76.983 218.487 77.4048 219.386 77.9322 219.161C93.2248 213.994 108.728 208.153 124.759 206.468C126.341 210.961 128.029 215.454 129.4 220.06C116.322 224.778 103.877 231.405 91.6428 238.257C91.221 238.482 91.4319 239.38 91.9592 239.156C104.932 234.663 118.01 230.507 131.404 228.148C131.826 230.619 132.353 233.202 132.564 235.786C132.775 237.808 132.88 239.83 132.986 241.964L103.666 261.846C103.244 262.183 103.561 262.97 104.088 262.745L133.724 250.613C134.357 254.77 135.306 258.926 137.626 262.408C145.431 262.52 153.235 262.857 160.934 263.644L123.81 285.098C123.388 285.323 123.705 286.222 124.127 285.997L173.696 265.329C182.239 266.564 190.887 268.249 199.219 270.383C179.918 281.167 160.091 291.613 139.314 298.803C138.681 299.027 138.997 299.926 139.525 299.813C164.098 293.972 187.723 283.75 210.926 273.641C215.777 275.101 220.734 276.786 225.586 278.471C223.898 278.359 222 278.808 219.785 279.257ZM249.21 264.205C249.632 266.115 250.265 267.912 250.792 269.822C239.507 262.633 226.851 258.476 213.984 256.118C207.34 254.994 200.59 254.096 193.84 253.759C187.723 253.422 180.129 254.433 174.434 252.972C179.918 250.95 238.031 232.191 238.874 234.101C242.777 243.874 246.257 253.871 249.21 264.205ZM487.038 180.632C360.583 180.632 247.944 200.964 152.075 240.841L150.177 241.627L149.86 239.493C141.74 193.438 127.712 139.408 111.154 91.1063L110.521 89.1967L129.505 83.9172C249.527 51.4542 362.798 20.5637 487.038 20.5637C487.143 20.5637 487.248 20.5637 487.354 20.5637C611.277 20.5637 724.76 51.4541 844.675 84.1419L863.87 89.4213L863.237 91.3309C856.698 110.539 851.636 131.432 846.89 151.652C845.624 157.268 844.253 162.66 842.988 168.052C840.878 176.139 838.558 184.452 835.921 193.326C831.175 208.939 826.429 224.89 824.637 239.717L824.426 241.964L822.422 241.178C724.865 201.076 612.016 180.632 487.038 180.632ZM744.271 261.06C737.205 263.082 730.138 265.216 723.916 269.597C726.025 260.835 728.662 252.411 731.615 243.986C732.67 241.065 734.041 234.663 736.888 233.876C739.525 232.978 747.329 237.022 750.177 237.696C758.72 240.279 767.368 242.75 775.805 245.222C780.235 246.457 784.77 247.805 789.2 249.041C792.786 250.052 797.953 252.748 801.645 252.635C782.977 252.972 764.204 255.781 746.064 260.274C745.431 260.835 744.798 260.948 744.271 261.06ZM944.763 202.649C931.263 215.342 916.498 226.575 900.994 236.011C897.725 238.033 894.245 240.167 893.295 244.098C892.979 246.457 893.506 248.704 894.35 250.726C894.772 251.961 895.51 253.309 896.143 254.545C910.592 285.098 900.889 324.975 918.924 353.282C888.022 350.811 859.757 334.074 833.074 317.112C806.391 300.15 780.235 284.312 749.439 277.797C752.497 275.663 756.716 274.315 761.04 273.192C784.348 283.301 807.867 293.635 832.441 299.364C833.074 299.476 833.285 298.578 832.652 298.353C811.875 291.164 792.153 280.83 772.852 270.046C779.075 268.137 785.297 266.564 791.625 265.104C793.207 264.767 794.895 264.318 796.582 264.093L848.156 285.548C848.577 285.772 848.999 284.874 848.472 284.649L809.344 262.183C817.465 261.285 825.691 261.06 833.812 261.846C835.605 261.959 837.293 261.06 838.136 259.375C839.402 256.904 839.929 255.331 840.246 252.298L868.089 262.408C868.722 262.633 869.038 261.959 868.511 261.509L840.878 242.75C840.984 240.504 840.984 238.145 841.089 235.898C841.3 233.202 841.722 230.619 842.144 228.035C855.116 230.394 867.667 234.438 880.323 238.819C880.956 239.044 881.167 238.145 880.639 237.92C868.722 231.405 856.698 224.89 843.937 220.285C845.203 215.567 846.89 210.961 848.577 206.356C864.292 208.265 879.374 213.994 894.35 218.937C894.983 219.161 895.299 218.263 894.666 218.038C880.428 210.961 866.296 203.435 851.214 199.279C853.429 193.438 855.538 187.597 857.12 181.756C866.19 185.013 874.522 190.517 883.487 194.449C884.12 194.674 884.436 194 883.909 193.55C875.471 187.26 867.878 179.397 858.808 174.005C859.651 169.287 859.968 164.457 859.651 159.515C880.85 185.687 912.385 201.638 944.763 202.649ZM945.079 150.304C944.13 137.273 948.876 127.95 960.056 120.536C967.017 116.043 975.876 112.673 984.313 109.416C992.012 106.495 999.078 103.575 1005.09 99.9803C1004.35 101.104 1003.51 102.002 1002.56 103.125C986.422 120.761 968.915 137.049 950.142 151.315C948.244 152.775 946.24 154.572 944.552 156.257C945.185 154.46 945.29 152.55 945.079 150.304ZM977.669 159.402C971.024 164.008 963.747 165.019 955.943 162.323C952.146 161.312 948.243 160.975 944.658 161.874C946.24 159.065 949.193 156.482 952.357 154.235C953.517 153.449 954.677 152.55 955.943 151.539C962.798 156.145 971.024 158.728 978.934 158.504C978.723 158.728 978.196 159.178 977.669 159.402ZM983.575 154.684C975.243 156.032 966.278 153.786 959.001 149.405C961.954 147.046 964.696 144.687 967.544 142.216C972.395 146.147 978.723 148.057 986.317 147.945C987.372 147.945 988.11 147.832 988.954 147.832C987.372 150.191 985.368 152.438 983.575 154.684ZM991.485 143.901C982.731 145.137 975.559 143.789 970.181 140.082C973.239 137.61 976.087 134.915 978.723 132.331C984.313 134.69 989.481 135.926 994.121 135.589H995.598C994.543 138.284 993.278 141.205 991.485 143.901ZM997.707 131.657C993.278 132.556 987.899 131.657 981.887 129.41C984.524 126.827 987.372 124.131 990.219 121.323C992.645 122.446 995.704 123.008 998.657 122.895C999.5 122.895 1000.13 122.895 1000.98 122.783C999.922 125.928 998.973 128.849 997.707 131.657ZM1002.35 119.301C999.184 119.638 995.809 119.638 993.067 118.852C996.969 114.471 1001.29 110.315 1005.3 105.934C1004.46 109.978 1003.51 114.583 1002.35 119.301Z" stroke="#CACC6B" stroke-width="2" mask="url(#path-1-inside-1_0_1)"/>
</g>
<path d="M166.081 167.494L152.193 121.546L168.257 116.691C171.457 115.724 174.264 115.479 176.678 115.958C179.087 116.421 181.08 117.427 182.658 118.974C184.231 120.506 185.357 122.394 186.035 124.638C186.631 126.612 186.773 128.348 186.459 129.847C186.159 131.341 185.554 132.634 184.644 133.726C183.748 134.812 182.696 135.734 181.489 136.491L181.624 136.94C183.057 136.605 184.62 136.671 186.312 137.139C188.004 137.607 189.582 138.534 191.045 139.92C192.509 141.305 193.607 143.21 194.339 145.633C195.035 147.936 195.138 150.166 194.647 152.322C194.156 154.478 192.944 156.436 191.011 158.195C189.078 159.955 186.302 161.382 182.683 162.476L166.081 167.494ZM170.153 160.876L181.191 157.54C184.825 156.441 187.193 154.959 188.293 153.092C189.404 151.205 189.655 149.252 189.045 147.233C188.574 145.678 187.744 144.362 186.554 143.285C185.359 142.193 183.908 141.473 182.203 141.123C180.493 140.758 178.636 140.879 176.632 141.485L165.325 144.902L170.153 160.876ZM163.86 140.056L174.18 136.937C175.855 136.431 177.266 135.645 178.414 134.58C179.576 133.511 180.372 132.258 180.803 130.822C181.249 129.381 181.228 127.853 180.74 126.238C180.13 124.219 178.909 122.719 177.078 121.738C175.243 120.742 172.8 120.705 169.748 121.627L159.249 124.801L163.86 140.056Z" fill="#DD3232"/>
<path d="M225.894 151.243C222.533 152.104 219.445 152.106 216.628 151.247C213.822 150.369 211.417 148.76 209.414 146.418C207.422 144.058 205.968 141.091 205.052 137.519C204.136 133.947 203.98 130.632 204.584 127.574C205.198 124.497 206.483 121.894 208.437 119.763C210.402 117.614 212.959 116.136 216.107 115.329C217.924 114.864 219.795 114.707 221.721 114.858C223.647 115.01 225.511 115.58 227.313 116.57C229.111 117.545 230.727 119.034 232.16 121.038C233.593 123.042 234.727 125.671 235.561 128.925L236.143 131.195L209.262 138.086L208.075 133.454L229.507 127.96C229.003 125.993 228.159 124.338 226.976 122.996C225.809 121.65 224.391 120.715 222.725 120.19C221.073 119.662 219.278 119.646 217.341 120.143C215.207 120.69 213.496 121.693 212.209 123.152C210.933 124.592 210.094 126.259 209.692 128.152C209.29 130.046 209.335 131.953 209.828 133.876L210.62 136.963C211.295 139.597 212.321 141.713 213.699 143.312C215.087 144.891 216.721 145.948 218.6 146.483C220.476 147.002 222.495 146.985 224.66 146.43C226.067 146.069 227.288 145.546 228.323 144.862C229.368 144.158 230.204 143.299 230.831 142.283C231.454 141.252 231.838 140.073 231.981 138.746L237.53 138.872C237.435 140.768 236.915 142.546 235.97 144.208C235.021 145.855 233.696 147.291 231.994 148.518C230.288 149.729 228.255 150.638 225.894 151.243Z" fill="#DD3232"/>
<path d="M267.935 141.392C264.635 142.099 261.626 141.929 258.909 140.881C256.191 139.834 253.898 138.08 252.029 135.62C250.159 133.16 248.848 130.174 248.095 126.66C247.329 123.084 247.309 119.789 248.037 116.772C248.777 113.738 250.166 111.195 252.203 109.144C254.253 107.075 256.866 105.7 260.044 105.019C262.519 104.489 264.848 104.469 267.031 104.96C269.213 105.451 271.115 106.386 272.737 107.764C274.359 109.142 275.558 110.899 276.335 113.033L270.927 114.192C270.17 112.676 268.949 111.452 267.263 110.519C265.589 109.567 263.56 109.347 261.177 109.858C259.069 110.31 257.338 111.256 255.985 112.696C254.643 114.118 253.743 115.917 253.282 118.093C252.834 120.251 252.894 122.659 253.464 125.317C254.047 128.037 254.982 130.313 256.27 132.146C257.573 133.977 259.131 135.281 260.943 136.059C262.771 136.833 264.755 136.992 266.894 136.533C268.299 136.232 269.523 135.714 270.564 134.98C271.605 134.245 272.424 133.335 273.022 132.248C273.62 131.161 273.95 129.94 274.011 128.584L279.419 127.425C279.559 129.568 279.204 131.602 278.354 133.526C277.516 135.431 276.216 137.084 274.455 138.484C272.705 139.866 270.532 140.835 267.935 141.392Z" fill="#DD3232"/>
<path d="M308.826 133.504C305.623 134.057 302.682 133.779 300.001 132.672C297.336 131.562 295.09 129.754 293.262 127.247C291.45 124.737 290.227 121.65 289.595 117.985C288.958 114.29 289.071 110.948 289.935 107.961C290.815 104.971 292.324 102.507 294.463 100.568C296.617 98.6267 299.296 97.3798 302.499 96.8272C305.701 96.2747 308.635 96.5535 311.3 97.6634C313.981 98.7708 316.228 100.587 318.043 103.112C319.874 105.634 321.108 108.743 321.745 112.439C322.378 116.103 322.253 119.423 321.37 122.397C320.504 125.369 318.993 127.826 316.839 129.767C314.7 131.706 312.029 132.952 308.826 133.504ZM307.981 128.608C310.414 128.188 312.308 127.219 313.664 125.701C315.019 124.183 315.899 122.342 316.302 120.18C316.706 118.017 316.704 115.75 316.295 113.379C315.886 111.008 315.127 108.863 314.019 106.946C312.912 105.028 311.464 103.573 309.675 102.582C307.887 101.59 305.776 101.304 303.343 101.724C300.911 102.143 299.018 103.12 297.665 104.654C296.312 106.187 295.435 108.043 295.034 110.221C294.633 112.399 294.637 114.674 295.046 117.045C295.455 119.416 296.212 121.553 297.317 123.455C298.422 125.357 299.868 126.797 301.654 127.773C303.439 128.749 305.548 129.027 307.981 128.608Z" fill="#DD3232"/>
<path d="M338.269 127.809L333.93 92.0718L339.234 91.4277L339.912 97.0117L340.378 96.9552C340.891 94.9569 341.913 93.3296 343.444 92.0734C344.974 90.8016 346.902 90.0244 349.229 89.7419C351.587 89.4556 353.614 89.7525 355.31 90.6325C357.021 91.4952 358.434 92.8268 359.549 94.6273L359.922 94.5821C360.613 92.6251 361.807 90.9926 363.506 89.6846C365.203 88.3611 367.33 87.5439 369.89 87.2332C373.085 86.8452 375.82 87.5283 378.095 89.2825C380.368 91.0212 381.76 93.9923 382.27 98.1958L385.174 122.114L379.684 122.781L376.779 98.8625C376.459 96.2256 375.509 94.4286 373.929 93.4715C372.349 92.5143 370.582 92.1544 368.627 92.3917C366.115 92.6968 364.26 93.6932 363.064 95.381C361.867 97.0532 361.408 99.0448 361.689 101.356L364.514 124.623L358.93 125.301L355.958 100.824C355.711 98.7922 354.853 97.2358 353.384 96.155C351.913 95.0587 350.138 94.6368 348.06 94.8891C346.633 95.0624 345.345 95.6044 344.196 96.5151C343.063 97.424 342.199 98.5993 341.602 100.041C341.02 101.465 340.835 103.054 341.048 104.807L343.76 127.143L338.269 127.809Z" fill="#DD3232"/>
<path d="M415.593 120.532C412.134 120.779 409.094 120.229 406.476 118.881C403.872 117.516 401.794 115.502 400.241 112.841C398.702 110.162 397.802 106.984 397.539 103.306C397.277 99.6277 397.715 96.3381 398.855 93.437C400.01 90.5192 401.738 88.187 404.042 86.4404C406.36 84.677 409.139 83.6796 412.381 83.4481C414.251 83.3145 416.12 83.4943 417.988 83.9875C419.856 84.4807 421.589 85.3752 423.185 86.671C424.78 87.9513 426.104 89.7052 427.156 91.9328C428.208 94.1604 428.853 96.9496 429.093 100.3L429.26 102.638L401.58 104.615L401.24 99.8459L423.308 98.2698C423.164 96.2437 422.629 94.4648 421.705 92.933C420.797 91.4 419.57 90.2267 418.023 89.4129C416.493 88.598 414.73 88.2618 412.735 88.4042C410.537 88.5612 408.675 89.2424 407.148 90.4481C405.635 91.637 404.512 93.127 403.778 94.9182C403.044 96.7094 402.748 98.5947 402.889 100.574L403.117 103.753C403.31 106.465 403.942 108.731 405.012 110.55C406.096 112.352 407.515 113.684 409.268 114.546C411.02 115.392 413.011 115.735 415.24 115.576C416.689 115.473 417.984 115.176 419.124 114.688C420.278 114.182 421.254 113.486 422.053 112.599C422.85 111.696 423.437 110.604 423.816 109.324L429.253 110.44C428.821 112.288 427.992 113.945 426.765 115.411C425.537 116.861 423.976 118.038 422.083 118.941C420.188 119.828 418.025 120.359 415.593 120.532Z" fill="#DD3232"/>
<path d="M470.576 117.206L464.483 117.24L481.841 69.1425L487.841 69.1091L505.732 117.01L499.638 117.044L485.07 76.7184L484.695 76.7205L470.576 117.206ZM472.722 98.4436L497.284 98.3071L497.313 103.463L472.751 103.6L472.722 98.4436Z" fill="#DD3232"/>
<path d="M570.485 83.8938C570.352 81.5059 569.328 79.595 567.413 78.161C565.498 76.727 563.091 75.92 560.19 75.7398C558.069 75.608 556.192 75.8358 554.559 76.4232C552.941 77.0116 551.65 77.8785 550.687 79.0241C549.739 80.1707 549.217 81.5081 549.123 83.0364C549.043 84.3152 549.279 85.4335 549.83 86.3914C550.398 87.3347 551.146 88.1404 552.075 88.8087C553.005 89.4614 553.988 90.0156 555.025 90.4713C556.062 90.9115 557.018 91.2761 557.892 91.5653L562.676 93.1775C563.903 93.5825 565.263 94.1209 566.756 94.7929C568.264 95.4658 569.689 96.3449 571.03 97.4301C572.388 98.5008 573.479 99.8366 574.304 101.438C575.128 103.039 575.47 104.962 575.331 107.208C575.17 109.797 574.346 112.094 572.86 114.099C571.389 116.105 569.32 117.644 566.655 118.715C564.006 119.788 560.84 120.209 557.16 119.981C553.729 119.768 550.793 119.03 548.351 117.766C545.924 116.504 544.055 114.838 542.744 112.768C541.447 110.7 540.787 108.35 540.763 105.718L546.751 106.09C546.795 107.909 547.31 109.444 548.297 110.695C549.3 111.931 550.603 112.889 552.204 113.567C553.823 114.232 555.583 114.623 557.486 114.741C559.7 114.878 561.711 114.643 563.517 114.035C565.325 113.412 566.784 112.485 567.894 111.254C569.004 110.008 569.614 108.512 569.722 106.765C569.821 105.175 569.457 103.853 568.63 102.799C567.803 101.746 566.684 100.863 565.272 100.149C563.861 99.4348 562.327 98.7916 560.672 98.2192L554.882 96.1687C551.206 94.8602 548.338 93.1401 546.279 91.0083C544.22 88.8765 543.29 86.1965 543.491 82.9684C543.658 80.2861 544.528 77.9919 546.102 76.0858C547.693 74.1651 549.755 72.7277 552.288 71.7735C554.837 70.8047 557.64 70.4152 560.697 70.6051C563.785 70.7969 566.495 71.521 568.828 72.7774C571.162 74.0182 572.971 75.6335 574.256 77.6233C575.557 79.614 576.172 81.8204 576.1 84.2425L570.485 83.8938Z" fill="#DD3232"/>
<path d="M587.422 134.872L592.637 85.6478L597.951 86.2108L597.349 91.8977L598.001 91.9669C598.471 91.3882 599.114 90.655 599.931 89.7674C600.765 88.8658 601.899 88.106 603.331 87.4879C604.781 86.8558 606.671 86.6633 609.002 86.9102C612.016 87.2296 614.593 88.2647 616.733 90.0155C618.873 91.7664 620.441 94.093 621.438 96.9954C622.435 99.8978 622.734 103.229 622.335 106.989C621.934 110.781 620.941 113.999 619.356 116.643C617.774 119.272 615.759 121.227 613.314 122.508C610.87 123.773 608.157 124.248 605.173 123.932C602.874 123.688 601.073 123.112 599.771 122.204C598.47 121.281 597.499 120.29 596.857 119.232C596.216 118.159 595.729 117.275 595.394 116.579L594.928 116.53L592.922 135.455L587.422 134.872ZM596.148 104.121C595.862 106.824 596.005 109.251 596.579 111.402C597.154 113.537 598.141 115.268 599.54 116.594C600.941 117.905 602.745 118.678 604.951 118.912C607.251 119.155 609.234 118.753 610.901 117.704C612.584 116.641 613.924 115.117 614.92 113.133C615.933 111.135 616.575 108.862 616.845 106.313C617.111 103.796 616.963 101.486 616.4 99.3842C615.855 97.268 614.867 95.5372 613.439 94.1917C612.027 92.8323 610.156 92.0291 607.825 91.7822C605.588 91.5451 603.648 91.9131 602.005 92.886C600.364 93.8434 599.048 95.2909 598.057 97.2286C597.067 99.1507 596.431 101.448 596.148 104.121Z" fill="#DD3232"/>
<path d="M648.575 129.473C645.36 128.994 642.653 127.81 640.454 125.919C638.271 124.03 636.704 121.609 635.753 118.656C634.818 115.705 634.624 112.39 635.171 108.712C635.723 105.003 636.877 101.865 638.633 99.2985C640.405 96.7344 642.61 94.8667 645.248 93.6953C647.902 92.5262 650.837 92.1808 654.051 92.6591C657.266 93.1373 659.965 94.3208 662.148 96.2095C664.347 98.1005 665.913 100.529 666.846 103.496C667.794 106.464 667.993 109.803 667.441 113.513C666.894 117.191 665.735 120.304 663.966 122.853C662.212 125.404 660.008 127.264 657.354 128.433C654.716 129.604 651.789 129.951 648.575 129.473ZM649.306 124.558C651.748 124.921 653.85 124.594 655.612 123.577C657.375 122.56 658.787 121.087 659.848 119.16C660.908 117.232 661.616 115.079 661.97 112.699C662.324 110.319 662.275 108.045 661.824 105.876C661.372 103.708 660.453 101.873 659.065 100.371C657.677 98.8695 655.762 97.937 653.32 97.5737C650.878 97.2105 648.775 97.5452 647.01 98.578C645.245 99.6108 643.831 101.099 642.768 103.041C641.705 104.984 640.996 107.146 640.642 109.526C640.288 111.906 640.338 114.172 640.792 116.325C641.245 118.478 642.167 120.297 643.558 121.784C644.948 123.27 646.864 124.195 649.306 124.558Z" fill="#DD3232"/>
<path d="M687.856 113.231L683.789 134.502L678.357 133.464L685.116 98.104L690.365 99.1074L689.309 104.632L689.769 104.72C690.941 103.083 692.475 101.881 694.372 101.114C696.271 100.332 698.556 100.196 701.227 100.707C703.621 101.164 705.622 102.056 707.23 103.381C708.84 104.691 709.955 106.432 710.574 108.602C711.196 110.757 711.22 113.339 710.645 116.347L706.35 138.815L700.917 137.777L705.142 115.677C705.673 112.899 705.365 110.597 704.219 108.771C703.075 106.93 701.245 105.769 698.728 105.288C696.994 104.956 695.372 105.036 693.862 105.527C692.368 106.021 691.092 106.914 690.033 108.207C688.975 109.5 688.249 111.175 687.856 113.231Z" fill="#DD3232"/>
<path d="M752.356 120.53L747.198 120.778C747.081 119.901 746.813 119.013 746.396 118.114C745.998 117.204 745.354 116.381 744.466 115.646C743.578 114.911 742.35 114.362 740.782 113.998C738.636 113.501 736.733 113.581 735.072 114.238C733.431 114.884 732.436 115.961 732.086 117.468C731.776 118.807 732.018 119.978 732.812 120.98C733.606 121.982 734.978 122.982 736.929 123.98L741.838 126.465C744.797 127.953 746.864 129.659 748.038 131.583C749.215 133.492 749.52 135.672 748.952 138.122C748.486 140.132 747.491 141.794 745.967 143.108C744.459 144.427 742.571 145.305 740.305 145.741C738.038 146.178 735.543 146.081 732.818 145.45C729.241 144.62 726.46 143.158 724.476 141.062C722.492 138.966 721.533 136.354 721.601 133.226L727.012 133.133C727.061 135.133 727.654 136.762 728.79 138.02C729.941 139.281 731.62 140.168 733.827 140.679C736.339 141.262 738.456 141.191 740.18 140.468C741.922 139.733 742.968 138.612 743.317 137.105C743.599 135.887 743.41 134.769 742.748 133.749C742.089 132.714 740.925 131.787 739.255 130.966L733.727 128.242C730.692 126.736 728.606 125.01 727.47 123.062C726.352 121.103 726.073 118.913 726.635 116.493C727.093 114.514 728.055 112.892 729.519 111.628C730.998 110.367 732.804 109.526 734.939 109.107C737.088 108.691 739.396 108.769 741.862 109.34C745.332 110.145 747.88 111.537 749.506 113.518C751.148 115.503 752.097 117.84 752.356 120.53Z" fill="#DD3232"/>
<path d="M773.72 155.769C770.586 154.912 768.039 153.413 766.082 151.273C764.139 149.138 762.871 146.547 762.279 143.502C761.702 140.46 761.905 137.146 762.886 133.559C763.876 129.942 765.396 126.964 767.445 124.626C769.51 122.291 771.922 120.699 774.681 119.851C777.455 119.006 780.41 119.013 783.545 119.871C786.679 120.729 789.218 122.225 791.161 124.361C793.119 126.5 794.384 129.098 794.957 132.155C795.545 135.215 795.344 138.554 794.354 142.171C793.372 145.758 791.851 148.711 789.791 151.031C787.746 153.355 785.336 154.939 782.561 155.783C779.802 156.632 776.855 156.627 773.72 155.769ZM775.032 150.977C777.413 151.629 779.539 151.554 781.411 150.754C783.282 149.954 784.859 148.661 786.142 146.873C787.425 145.086 788.384 143.032 789.019 140.711C789.654 138.39 789.877 136.127 789.687 133.92C789.497 131.713 788.802 129.782 787.603 128.125C786.404 126.469 784.614 125.315 782.233 124.663C779.852 124.012 777.724 124.093 775.848 124.908C773.973 125.724 772.392 127.032 771.105 128.835C769.818 130.637 768.856 132.699 768.221 135.019C767.586 137.34 767.366 139.596 767.56 141.788C767.754 143.979 768.452 145.896 769.655 147.537C770.859 149.179 772.651 150.325 775.032 150.977Z" fill="#DD3232"/>
<path d="M802.843 163.364L813.545 128.992L818.647 130.58L817.031 135.772L817.389 135.883C818.545 134.378 820.108 133.351 822.079 132.803C824.05 132.254 826.065 132.301 828.124 132.942C828.512 133.063 828.994 133.221 829.571 133.417C830.148 133.613 830.582 133.773 830.871 133.895L829.198 139.266C829.033 139.165 828.644 138.971 828.03 138.681C827.436 138.382 826.789 138.123 826.088 137.905C824.417 137.384 822.816 137.27 821.284 137.563C819.773 137.845 818.446 138.479 817.304 139.466C816.182 140.442 815.38 141.706 814.897 143.257L808.124 165.008L802.843 163.364Z" fill="#DD3232"/>
<defs>
<filter id="filter0_d_0_1" x="0" y="0" width="1017" height="448" filterUnits="userSpaceOnUse" color-interpolation-filters="sRGB">
<feFlood flood-opacity="0" result="BackgroundImageFix"/>
<feColorMatrix in="SourceAlpha" type="matrix" values="0 0 0 0 0 0 0 0 0 0 0 0 0 0 0 0 0 0 127 0" result="hardAlpha"/>
<feOffset dy="4"/>
<feGaussianBlur stdDeviation="2"/>
<feComposite in2="hardAlpha" operator="out"/>
<feColorMatrix type="matrix" values="0 0 0 0 0 0 0 0 0 0 0 0 0 0 0 0 0 0 0.25 0"/>
<feBlend mode="normal" in2="BackgroundImageFix" result="effect1_dropShadow_0_1"/>
<feBlend mode="normal" in="SourceGraphic" in2="effect1_dropShadow_0_1" result="shape"/>
</filter>
</defs>
</svg>
