<svg width="679" height="100" viewBox="0 0 679 100" fill="none" xmlns="http://www.w3.org/2000/svg">
<path d="M14.0805 98.4936L0.193063 52.5465L16.2566 47.6913C19.4574 46.7239 22.2645 46.4794 24.678 46.9578C27.087 47.4213 29.0803 48.4266 30.6579 49.9739C32.231 51.5062 33.3566 53.394 34.0347 55.6376C34.6314 57.6118 34.7727 59.3484 34.4585 60.8471C34.1593 62.3414 33.5543 63.6342 32.6437 64.7256C31.7479 65.8125 30.6962 66.7343 29.4885 67.4911L29.6241 67.9398C31.0572 67.6046 32.6198 67.671 34.3119 68.1389C36.0041 68.6068 37.5819 69.5337 39.0454 70.9196C40.509 72.3054 41.6069 74.2098 42.3393 76.6328C43.0355 78.9361 43.1381 81.1659 42.6472 83.322C42.1562 85.4781 40.9443 87.4359 39.0113 89.1954C37.0783 90.9549 34.302 92.3817 30.6825 93.4757L14.0805 98.4936ZM18.1526 91.8762L29.1907 88.54C32.8252 87.4415 35.1928 85.9587 36.2934 84.0916C37.4045 82.2051 37.6549 80.2523 37.0446 78.2331C36.5744 76.6776 35.7441 75.3616 34.5536 74.285C33.3585 73.1934 31.9083 72.4728 30.203 72.1231C28.4931 71.7585 26.6361 71.879 24.6319 72.4848L13.3246 75.9024L18.1526 91.8762ZM11.8599 71.0564L22.18 67.9372C23.8552 67.4309 25.2663 66.6452 26.4135 65.5803C27.5757 64.5108 28.3723 63.258 28.8034 61.8218C29.2494 60.3812 29.2283 58.8532 28.74 57.2379C28.1297 55.2187 26.9092 53.7186 25.0783 52.7376C23.2429 51.7417 20.7996 51.7048 17.7484 52.627L7.24879 55.8005L11.8599 71.0564Z" fill="black"/>
<path d="M73.8936 82.2429C70.5335 83.1042 67.4449 83.1055 64.6278 82.2469C61.822 81.3692 59.4174 79.7596 57.4139 77.4181C55.4216 75.0576 53.9677 72.0914 53.0521 68.5194C52.1365 64.9473 51.9803 61.6323 52.5836 58.5742C53.1982 55.4971 54.4826 52.8935 56.4368 50.7635C58.4022 48.6144 60.959 47.1364 64.1072 46.3294C65.9235 45.8639 67.7947 45.7068 69.7208 45.8583C71.6468 46.0098 73.511 46.5805 75.3131 47.5702C77.1115 48.5448 78.7272 50.034 80.1602 52.0378C81.5932 54.0416 82.7268 56.6706 83.561 59.9248L84.1429 62.1952L57.262 69.0855L56.0748 64.454L77.5069 58.9603C77.0025 56.9927 76.159 55.3378 74.9762 53.9957C73.8085 52.6498 72.3913 51.7146 70.7245 51.1901C69.0729 50.6618 67.2784 50.646 65.341 51.1426C63.2069 51.6896 61.4961 52.6927 60.2087 54.1518C58.9326 55.5919 58.0936 57.2586 57.6918 59.1521C57.29 61.0455 57.3354 62.9534 57.8281 64.8756L58.6196 67.9633C59.2947 70.5969 60.321 72.713 61.6986 74.3116C63.0874 75.8912 64.7214 76.9483 66.6004 77.4829C68.4756 78.0023 70.4954 77.9846 72.6598 77.4298C74.0675 77.069 75.2884 76.5463 76.3227 75.8618C77.3683 75.1583 78.2045 74.2987 78.8313 73.2832C79.4543 72.2524 79.8376 71.0735 79.9813 69.7462L85.5301 69.8724C85.4353 71.7678 84.9153 73.5464 83.9702 75.2081C83.0212 76.8546 81.6958 78.2912 79.9939 79.5179C78.2882 80.7293 76.2547 81.6377 73.8936 82.2429Z" fill="black"/>
<path d="M115.935 72.3917C112.635 73.099 109.626 72.9288 106.909 71.8812C104.191 70.8336 101.898 69.0799 100.029 66.6201C98.1591 64.1604 96.8478 61.1735 96.0948 57.6596C95.3286 54.0845 95.3095 50.7888 96.0373 47.7724C96.7771 44.7375 98.1658 42.1948 100.203 40.1442C102.253 38.075 104.866 36.7 108.044 36.0189C110.519 35.4885 112.848 35.4688 115.031 35.9599C117.213 36.4509 119.115 37.3856 120.737 38.7639C122.359 40.1421 123.558 41.8986 124.335 44.0331L118.927 45.1922C118.17 43.6764 116.949 42.452 115.263 41.5189C113.589 40.5674 111.56 40.347 109.177 40.8577C107.069 41.3096 105.338 42.2557 103.985 43.6963C102.643 45.1183 101.743 46.9173 101.282 49.0933C100.834 51.2508 100.894 53.6588 101.464 56.3172C102.047 59.0367 102.982 61.3131 104.27 63.1465C105.573 64.9766 107.131 66.2806 108.943 67.0587C110.771 67.8335 112.755 67.9917 114.894 67.5333C116.299 67.2321 117.523 66.7142 118.564 65.9798C119.605 65.2453 120.424 64.3346 121.022 63.2477C121.62 62.1607 121.95 60.9395 122.011 59.5842L127.419 58.4251C127.559 60.5684 127.204 62.602 126.354 64.526C125.516 66.4314 124.216 68.0842 122.455 69.4844C120.705 70.866 118.532 71.8351 115.935 72.3917Z" fill="black"/>
<path d="M156.826 64.5042C153.623 65.0567 150.682 64.7793 148.001 63.672C145.336 62.562 143.09 60.7535 141.262 58.2465C139.45 55.7369 138.227 52.6497 137.595 48.9851C136.958 45.2897 137.071 41.9484 137.935 38.9611C138.815 35.9712 140.324 33.5069 142.463 31.5681C144.617 29.6267 147.296 28.3798 150.499 27.8272C153.701 27.2747 156.635 27.5535 159.3 28.6634C161.981 29.7708 164.228 31.5869 166.043 34.112C167.874 36.6344 169.108 39.7433 169.745 43.4387C170.378 47.1034 170.253 50.4229 169.37 53.3974C168.504 56.3693 166.993 58.8259 164.839 60.7673C162.7 62.7061 160.029 63.9517 156.826 64.5042ZM155.981 59.6078C158.414 59.1881 160.308 58.2192 161.664 56.701C163.019 55.1829 163.899 53.3425 164.302 51.1799C164.706 49.0172 164.704 46.7503 164.295 44.3791C163.886 42.0078 163.127 39.8634 162.019 37.9457C160.912 36.0279 159.464 34.5733 157.675 33.5816C155.887 32.5899 153.776 32.304 151.343 32.7237C148.911 33.1434 147.018 34.12 145.665 35.6535C144.312 37.1871 143.435 39.0429 143.034 41.2209C142.633 43.3989 142.637 45.6736 143.046 48.0448C143.455 50.416 144.212 52.5528 145.317 54.4551C146.422 56.3574 147.868 57.7967 149.654 58.773C151.439 59.7492 153.548 60.0275 155.981 59.6078Z" fill="black"/>
<path d="M186.269 58.8093L181.93 23.0718L187.234 22.4277L187.912 28.0117L188.378 27.9552C188.891 25.9569 189.913 24.3296 191.444 23.0734C192.974 21.8016 194.902 21.0244 197.229 20.7419C199.587 20.4556 201.614 20.7525 203.31 21.6325C205.021 22.4952 206.434 23.8268 207.549 25.6273L207.922 25.5821C208.613 23.6251 209.807 21.9926 211.506 20.6846C213.203 19.3611 215.33 18.5439 217.89 18.2332C221.085 17.8452 223.82 18.5283 226.095 20.2825C228.368 22.0212 229.76 24.9923 230.27 29.1958L233.174 53.1139L227.684 53.7806L224.779 29.8625C224.459 27.2256 223.509 25.4286 221.929 24.4715C220.349 23.5143 218.582 23.1544 216.627 23.3917C214.115 23.6968 212.26 24.6932 211.064 26.381C209.867 28.0532 209.408 30.0448 209.689 32.356L212.514 55.6226L206.93 56.3006L203.958 31.8241C203.711 29.7922 202.853 28.2358 201.384 27.155C199.913 26.0587 198.138 25.6368 196.06 25.8891C194.633 26.0624 193.345 26.6044 192.196 27.5151C191.063 28.424 190.199 29.5993 189.602 31.041C189.02 32.4654 188.835 34.0539 189.048 35.8067L191.76 58.1426L186.269 58.8093Z" fill="black"/>
<path d="M263.593 51.5322C260.134 51.7793 257.094 51.2288 254.476 49.8806C251.872 48.5158 249.794 46.5025 248.241 43.8407C246.702 41.1622 245.802 37.984 245.539 34.3058C245.277 30.6277 245.715 27.3381 246.855 24.437C248.01 21.5192 249.738 19.187 252.042 17.4404C254.36 15.677 257.139 14.6796 260.381 14.4481C262.251 14.3145 264.12 14.4943 265.988 14.9875C267.856 15.4807 269.589 16.3752 271.185 17.671C272.78 18.9513 274.104 20.7052 275.156 22.9328C276.208 25.1604 276.853 27.9496 277.093 31.3004L277.26 33.6382L249.58 35.615L249.24 30.8459L271.308 29.2698C271.164 27.2437 270.629 25.4648 269.705 23.933C268.797 22.4 267.57 21.2267 266.023 20.4129C264.493 19.598 262.73 19.2618 260.735 19.4042C258.537 19.5612 256.675 20.2424 255.148 21.4481C253.635 22.637 252.512 24.127 251.778 25.9182C251.044 27.7094 250.748 29.5947 250.889 31.574L251.117 34.7534C251.31 37.4652 251.942 39.7307 253.012 41.5497C254.096 43.3521 255.515 44.6841 257.268 45.5457C259.02 46.3918 261.011 46.7353 263.24 46.5761C264.689 46.4726 265.984 46.1765 267.124 45.6878C268.278 45.1824 269.254 44.4861 270.053 43.5988C270.85 42.696 271.437 41.6045 271.816 40.3243L277.253 41.4398C276.821 43.2878 275.992 44.9448 274.765 46.4109C273.537 47.8614 271.976 49.0381 270.083 49.9409C268.188 50.8282 266.025 51.3586 263.593 51.5322Z" fill="black"/>
<path d="M318.576 48.2058L312.483 48.2396L329.841 0.14246L335.841 0.109127L353.732 48.0105L347.638 48.0443L333.07 7.71838L332.695 7.72047L318.576 48.2058ZM320.722 29.4436L345.284 29.3071L345.313 34.4633L320.751 34.5997L320.722 29.4436Z" fill="black"/>
<path d="M418.485 14.8938C418.352 12.5059 417.328 10.595 415.413 9.16101C413.498 7.72704 411.091 6.91996 408.19 6.73978C406.069 6.60804 404.192 6.83585 402.559 7.42322C400.941 8.01156 399.65 8.87852 398.687 10.0241C397.739 11.1707 397.217 12.5081 397.123 14.0364C397.043 15.3152 397.279 16.4335 397.83 17.3914C398.398 18.3347 399.146 19.1404 400.075 19.8087C401.005 20.4614 401.988 21.0156 403.025 21.4713C404.062 21.9115 405.018 22.2761 405.892 22.5653L410.676 24.1775C411.903 24.5825 413.263 25.1209 414.756 25.7929C416.264 26.4658 417.689 27.3449 419.03 28.4301C420.388 29.5008 421.479 30.8366 422.304 32.4377C423.128 34.0387 423.47 35.9621 423.331 38.2077C423.17 40.7965 422.346 43.0936 420.86 45.0991C419.389 47.1055 417.32 48.6443 414.655 49.7155C412.006 50.7876 408.84 51.2094 405.16 50.9808C401.729 50.7677 398.793 50.0295 396.351 48.7663C393.924 47.5041 392.055 45.8381 390.744 43.7684C389.447 41.6997 388.787 39.3496 388.763 36.718L394.751 37.09C394.795 38.9087 395.31 40.4436 396.297 41.6947C397.3 42.9311 398.603 43.8887 400.204 44.5675C401.823 45.2316 403.583 45.6227 405.486 45.7409C407.7 45.8784 409.711 45.6433 411.517 45.0354C413.325 44.4119 414.784 43.4849 415.894 42.2545C417.004 41.0084 417.614 39.5121 417.722 37.7654C417.821 36.1748 417.457 34.8528 416.63 33.7995C415.803 32.7462 414.684 31.8626 413.272 31.1487C411.861 30.4348 410.327 29.7916 408.672 29.2192L402.882 27.1687C399.206 25.8602 396.338 24.1401 394.279 22.0083C392.22 19.8765 391.29 17.1965 391.491 13.9684C391.658 11.2861 392.528 8.99187 394.102 7.0858C395.693 5.16511 397.755 3.72768 400.288 2.77349C402.837 1.80468 405.64 1.41521 408.697 1.60507C411.785 1.79688 414.495 2.52099 416.828 3.77741C419.162 5.01824 420.971 6.63354 422.256 8.6233C423.557 10.614 424.172 12.8204 424.1 15.2425L418.485 14.8938Z" fill="black"/>
<path d="M435.422 65.8723L440.637 16.6478L445.951 17.2108L445.349 22.8977L446.001 22.9669C446.471 22.3882 447.114 21.655 447.931 20.7674C448.765 19.8658 449.899 19.106 451.331 18.4879C452.781 17.8558 454.671 17.6633 457.002 17.9102C460.016 18.2296 462.593 19.2647 464.733 21.0155C466.873 22.7664 468.441 25.093 469.438 27.9954C470.435 30.8978 470.734 34.2291 470.335 37.9893C469.934 41.7806 468.941 44.9986 467.356 47.6432C465.774 50.2724 463.759 52.2273 461.314 53.508C458.87 54.7732 456.157 55.2478 453.173 54.9317C450.874 54.6881 449.073 54.1123 447.771 53.2044C446.47 52.281 445.499 51.2903 444.857 50.2324C444.216 49.159 443.729 48.2745 443.394 47.5791L442.928 47.5297L440.922 66.4551L435.422 65.8723ZM444.148 35.1205C443.862 37.8241 444.005 40.2512 444.579 42.4017C445.154 44.5367 446.141 46.2675 447.54 47.5942C448.941 48.9054 450.745 49.6778 452.951 49.9116C455.251 50.1552 457.234 49.7526 458.901 48.7036C460.584 47.6407 461.924 46.1171 462.92 44.1329C463.933 42.1347 464.575 39.8615 464.845 37.3133C465.111 34.7961 464.963 32.4864 464.4 30.3842C463.855 28.268 462.867 26.5372 461.439 25.1917C460.027 23.8323 458.156 23.0291 455.825 22.7822C453.588 22.5451 451.648 22.9131 450.005 23.886C448.364 24.8434 447.048 26.2909 446.057 28.2286C445.067 30.1507 444.431 32.448 444.148 35.1205Z" fill="black"/>
<path d="M496.575 60.4727C493.36 59.9944 490.653 58.8098 488.454 56.9188C486.271 55.0301 484.704 52.6091 483.753 49.6558C482.818 46.7048 482.624 43.3901 483.171 39.7119C483.723 36.0027 484.877 32.8649 486.633 30.2985C488.405 27.7344 490.61 25.8667 493.248 24.6953C495.902 23.5262 498.837 23.1808 502.051 23.6591C505.266 24.1373 507.965 25.3208 510.148 27.2095C512.347 29.1005 513.913 31.5292 514.846 34.4957C515.794 37.4644 515.993 40.8034 515.441 44.5126C514.894 48.1909 513.735 51.3043 511.966 53.853C510.212 56.4039 508.008 58.2639 505.354 59.433C502.716 60.6043 499.789 60.9509 496.575 60.4727ZM497.306 55.558C499.748 55.9213 501.85 55.5942 503.612 54.5769C505.375 53.5596 506.787 52.0872 507.848 50.1598C508.908 48.2325 509.616 46.0787 509.97 43.6987C510.324 41.3186 510.275 39.0445 509.824 36.8763C509.372 34.7082 508.453 32.8732 507.065 31.3714C505.677 29.8695 503.762 28.937 501.32 28.5737C498.878 28.2105 496.775 28.5452 495.01 29.578C493.245 30.6108 491.831 32.0986 490.768 34.0414C489.705 35.9843 488.996 38.1457 488.642 40.5258C488.288 42.9058 488.338 45.1722 488.792 47.3249C489.245 49.4776 490.167 51.2972 491.558 52.7835C492.948 54.2699 494.864 55.1947 497.306 55.558Z" fill="black"/>
<path d="M535.856 44.2313L531.789 65.5023L526.357 64.4637L533.116 29.104L538.365 30.1074L537.309 35.6324L537.769 35.7204C538.941 34.0832 540.475 32.8812 542.372 32.1142C544.271 31.332 546.556 31.1961 549.227 31.7066C551.621 32.1643 553.622 33.0559 555.23 34.3813C556.84 35.6915 557.955 37.4318 558.574 39.6022C559.196 41.7574 559.22 44.3389 558.645 47.347L554.35 69.8151L548.917 68.7765L553.142 46.6767C553.673 43.8989 553.365 41.5971 552.219 39.7712C551.075 37.93 549.245 36.7689 546.728 36.2877C544.994 35.9562 543.372 36.0359 541.862 36.5268C540.368 37.0206 539.092 37.914 538.033 39.207C536.975 40.5 536.249 42.1747 535.856 44.2313Z" fill="black"/>
<path d="M600.356 51.5304L595.198 51.7783C595.081 50.901 594.813 50.013 594.396 49.1143C593.998 48.204 593.354 47.3812 592.466 46.646C591.578 45.9108 590.35 45.3615 588.782 44.9981C586.636 44.5006 584.733 44.5807 583.072 45.2385C581.431 45.8845 580.436 46.961 580.086 48.4679C579.776 49.8074 580.018 50.9782 580.812 51.9803C581.606 52.9824 582.978 53.9821 584.929 54.9795L589.838 57.4648C592.797 58.9527 594.864 60.6587 596.038 62.5829C597.215 64.4919 597.52 66.6717 596.952 69.1223C596.486 71.1315 595.491 72.7936 593.967 74.1085C592.459 75.4269 590.571 76.3045 588.305 76.7415C586.038 77.1785 583.543 77.0812 580.818 76.4496C577.241 75.6204 574.46 74.1579 572.476 72.0619C570.492 69.966 569.533 67.354 569.601 64.2259L575.012 64.1328C575.061 66.1332 575.654 67.7623 576.79 69.02C577.941 70.2813 579.62 71.1677 581.827 71.6793C584.339 72.2615 586.456 72.191 588.18 71.4677C589.922 70.7328 590.968 69.6118 591.317 68.1049C591.599 66.8872 591.41 65.7686 590.748 64.749C590.089 63.7143 588.925 62.7868 587.255 61.9665L581.727 59.2417C578.692 57.7361 576.606 56.0096 575.47 54.062C574.352 52.1028 574.073 49.9131 574.635 47.4929C575.093 45.5141 576.055 43.8924 577.519 42.6278C578.998 41.3668 580.804 40.5265 582.939 40.107C585.088 39.691 587.396 39.7688 589.862 40.3404C593.332 41.1448 595.88 42.5375 597.506 44.5183C599.148 46.5026 600.097 48.84 600.356 51.5304Z" fill="black"/>
<path d="M621.72 86.7694C618.586 85.9115 616.039 84.4128 614.082 82.2733C612.139 80.1378 610.871 77.5474 610.279 74.5018C609.702 71.4604 609.905 68.1462 610.886 64.5594C611.876 60.9424 613.396 57.9644 615.445 55.6256C617.51 53.2909 619.922 51.6992 622.681 50.8506C625.455 50.0061 628.41 50.0128 631.545 50.8707C634.679 51.7286 637.218 53.2253 639.161 55.3607C641.119 57.5002 642.384 60.0982 642.957 63.1548C643.545 66.2154 643.344 69.5542 642.354 73.1712C641.372 76.758 639.851 79.7113 637.791 82.031C635.746 84.3547 633.336 85.9389 630.561 86.7833C627.802 87.6319 624.855 87.6273 621.72 86.7694ZM623.032 81.9769C625.413 82.6286 627.539 82.5544 629.411 81.7543C631.282 80.9543 632.859 79.6606 634.142 77.8734C635.425 76.0861 636.384 74.032 637.019 71.7111C637.654 69.3902 637.877 67.1265 637.687 64.92C637.497 62.7135 636.802 60.782 635.603 59.1255C634.404 57.469 632.614 56.3149 630.233 55.6632C627.852 55.0116 625.724 55.0933 623.848 55.9084C621.973 56.7235 620.392 58.0323 619.105 59.8346C617.818 61.6369 616.856 63.6985 616.221 66.0194C615.586 68.3403 615.366 70.5965 615.56 72.7879C615.754 74.9794 616.452 76.8958 617.655 78.5373C618.859 80.1787 620.651 81.3252 623.032 81.9769Z" fill="black"/>
<path d="M650.843 94.364L661.545 59.9916L666.647 61.5803L665.031 66.7719L665.389 66.8834C666.545 65.3778 668.108 64.3509 670.079 63.8026C672.05 63.2544 674.065 63.3007 676.124 63.9418C676.512 64.0625 676.994 64.221 677.571 64.4171C678.148 64.6131 678.582 64.7725 678.871 64.8953L677.198 70.266C677.033 70.1655 676.644 69.9706 676.03 69.6813C675.436 69.3818 674.789 69.1229 674.088 68.9046C672.417 68.3843 670.816 68.2704 669.284 68.5628C667.773 68.8449 666.446 69.4792 665.304 70.4656C664.182 71.4418 663.38 72.7056 662.897 74.2571L656.124 96.0084L650.843 94.364Z" fill="black"/>
</svg>
