<?xml version="1.0" encoding="UTF-8"?>
<svg xmlns="http://www.w3.org/2000/svg" id="Layer_1" data-name="Layer 1" viewBox="0 0 2254.55 259.62">
  <defs>
    <style>
      .cls-1 {
        fill: #cc122d;
      }

      .cls-1, .cls-2 {
        stroke-width: 0px;
      }

      .cls-2 {
        fill: #fff;
      }
    </style>
  </defs>
  <path class="cls-2" d="M839.1,217.71h45.76l-61-208.52h-49.03l-63.19,208.52h43.03l13.07-47.72h59.65l11.71,47.72ZM818.66,133.92h-42.76l22.61-88.77h.55l19.61,88.77ZM909.95,217.71h44.65v-86.28c16.35,0,22.35,0,29.7,29.07l14.73,57.21h46.83l-19.61-69.76c-7.07-25.38-12.52-33.94-26.41-35.78v-.62c36.75-8.24,37.84-43.44,37.84-52.32,0-39.45-26.67-50.05-57.99-50.05h-69.73v208.52ZM952.95,45.25h13.63c24,0,26.45,13.07,26.45,21.94,0,15.31-9.01,28.17-26.18,28.17h-13.91v-50.11ZM1076.93,217.71h44.65v-86.28c16.35,0,22.36,0,29.72,29.07l14.7,57.21h46.83l-19.6-69.76c-7.07-25.38-12.52-33.94-26.41-35.78v-.62c36.76-8.24,37.85-43.44,37.85-52.32,0-39.45-26.67-50.05-58.01-50.05h-69.73v208.52ZM1119.95,45.25h13.62c23.99,0,26.45,13.07,26.45,21.94,0,15.31-9,28.17-26.18,28.17h-13.89v-50.11ZM1238.48,110.95c0,62.74,25.87,110.44,80.63,110.44s80.88-47.7,80.88-110.44-26.14-105.43-80.88-105.43-80.63,42.7-80.63,105.43M1284.2,110.95c0-41,9-69.35,34.91-69.35s35.15,28.35,35.15,69.35-9.27,74.37-35.15,74.37-34.91-33.35-34.91-74.37M1558.82,217.71h52.28l37.34-208.52h-39.24l-24.51,146.72h-.55l-23.14-146.72h-52.3l-22.61,146.72h-.55l-22.88-146.72h-43.03l38.13,208.52h52.3l23.7-165.82h.54l24.52,165.82ZM1827.12,259.62l-37.28-49.25c26.14-17.11,39.75-55.36,39.75-99.43,0-62.73-26.13-105.43-80.89-105.43s-80.63,42.7-80.63,105.43,25.87,110.44,80.63,110.44h4.62l24.26,38.24h49.54ZM1713.8,110.95c0-41,9-69.35,34.89-69.35s35.16,28.35,35.16,69.35-9.27,74.37-35.16,74.37-34.89-33.35-34.89-74.37M1863.68,140.34c0,52.92,26.95,81.04,69.71,81.04s69.71-28.12,69.71-81.04V9.19h-44.63v139.1c0,21.42-7.09,34.58-25.08,34.58s-25.08-13.16-25.08-34.58V9.19h-44.63v131.15ZM2042.64,217.71h44.65V9.19h-44.65v208.52ZM2171.73,102.4v-55.92h11.72c17.72,0,26.45,4.18,26.45,25.32,0,19.89-10.1,30.6-24,30.6h-14.17ZM2128.73,217.71h44.63v-78.02h21.55c41.66,0,59.63-31.17,59.63-67.6,0-46.2-24.49-62.9-65.09-62.9h-60.73v208.52Z"></path>
  <g>
    <polygon class="cls-1" points="421.69 112.47 212.28 0 254.5 112.47 212.28 224.95 421.69 112.47"></polygon>
    <polygon class="cls-1" points="633.98 112.47 424.57 0 466.79 112.47 424.57 224.95 633.98 112.47"></polygon>
    <polygon class="cls-1" points="209.41 112.47 0 0 42.22 112.47 0 224.95 209.41 112.47"></polygon>
  </g>
</svg>
